<?xml version="1.0" encoding="UTF-8" standalone="no"?>
<!DOCTYPE svg PUBLIC "-//W3C//DTD SVG 1.1//EN" "http://www.w3.org/Graphics/SVG/1.1/DTD/svg11.dtd">
<svg xmlns="http://www.w3.org/2000/svg" version="1.1" viewBox="0.00 0.00 1024.00 1024.00">
<g stroke-width="2.00" fill="none" stroke-linecap="butt">
<path stroke="#c8e2a0" vector-effect="non-scaling-stroke" d="
  M 338.53 110.94
  Q 318.93 120.80 312.81 124.07
  Q 255.44 154.70 209.96 201.70
  Q 190.96 221.34 184.12 230.62
  C 168.90 251.25 160.28 262.08 150.67 279.52"
/>
<path stroke="#b9dda1" vector-effect="non-scaling-stroke" d="
  M 150.67 279.52
  C 149.63 281.44 148.72 283.19 147.28 285.07
  Q 143.93 289.48 140.21 297.20
  Q 133.72 310.65 130.91 317.99
  A 0.78 0.77 10.5 0 0 131.64 319.04
  L 197.62 319.04
  A 1.87 1.87 0.0 0 0 199.20 318.17
  Q 215.89 291.81 234.63 266.53"
/>
<path stroke="#c8e2a0" vector-effect="non-scaling-stroke" d="
  M 234.63 266.53
  Q 245.00 253.96 250.30 248.05
  Q 273.51 222.16 301.60 201.66
  Q 308.26 196.80 314.99 192.02"
/>
<path stroke="#b9dda1" vector-effect="non-scaling-stroke" d="
  M 314.99 192.02
  Q 331.11 181.12 348.20 171.86
  C 356.28 167.48 364.70 163.90 373.18 159.59
  Q 381.21 155.51 392.25 151.13
  Q 410.71 143.81 428.84 139.02
  C 441.20 135.76 457.02 133.22 471.08 130.73"
/>
<path stroke="#acd69e" vector-effect="non-scaling-stroke" d="
  M 471.08 130.73
  C 499.76 127.13 529.23 127.45 557.94 129.97"
/>
<path stroke="#a1cf9f" vector-effect="non-scaling-stroke" d="
  M 557.94 129.97
  C 566.09 131.33 574.80 132.40 582.30 133.96
  C 609.88 139.66 634.95 146.94 660.91 158.15
  C 685.78 168.90 711.50 184.97 734.85 202.65
  C 756.92 219.36 777.70 239.55 795.34 259.41
  Q 804.54 269.77 820.71 292.55"
/>
<path stroke="#9ec8a1" vector-effect="non-scaling-stroke" d="
  M 820.71 292.55
  Q 832.74 309.35 842.48 327.58"
/>
<path stroke="#91b89c" vector-effect="non-scaling-stroke" d="
  M 842.48 327.58
  Q 848.72 340.13 850.96 345.00
  Q 858.92 362.30 865.35 380.04
  Q 871.68 397.53 875.89 415.74
  C 881.54 440.16 886.07 464.60 886.98 489.01
  C 888.08 518.88 887.48 551.28 881.49 580.75
  Q 880.81 584.10 877.54 599.26
  C 874.08 615.31 869.48 630.05 863.79 645.01"
/>
<path stroke="#94b09d" vector-effect="non-scaling-stroke" d="
  M 863.79 645.01
  Q 855.33 668.83 843.67 691.26"
/>
<path stroke="#9faea3" vector-effect="non-scaling-stroke" d="
  M 843.67 691.26
  Q 832.84 712.61 821.14 728.89
  Q 812.92 740.33 808.64 746.69
  C 807.06 749.02 805.22 751.18 803.52 753.47"
/>
<path stroke="#a4ada7" vector-effect="non-scaling-stroke" d="
  M 803.52 753.47
  Q 785.46 773.09 766.11 791.36
  Q 762.05 795.19 756.43 799.72
  C 747.30 807.07 738.28 814.62 729.18 820.68
  Q 726.80 822.28 725.34 822.68
  A 0.81 0.81 0.0 0 1 724.32 821.92
  L 724.00 809.69"
/>
<path stroke="#afb0af" vector-effect="non-scaling-stroke" d="
  M 724.00 809.69
  L 724.08 447.81
  A 0.57 0.57 0.0 0 1 724.65 447.24
  L 847.55 447.24
  A 0.54 0.54 0.0 0 0 848.09 446.70
  L 848.68 375.46
  A 0.38 0.37 0.7 0 0 848.30 375.08
  L 513.91 375.08
  A 0.53 0.53 0.0 0 0 513.63 376.06
  Q 531.19 386.97 539.80 406.09
  C 543.98 415.37 545.05 425.56 546.42 435.50
  Q 547.05 440.07 546.71 446.37
  A 0.62 0.62 0.0 0 0 547.31 447.02
  Q 591.34 447.77 643.00 447.23
  Q 643.97 447.22 644.88 446.88
  A 0.82 0.81 79.1 0 1 645.97 447.62
  Q 646.13 452.40 645.77 462.74
  Q 645.09 482.13 645.09 492.50
  Q 645.18 671.52 645.04 850.54"
/>
<path stroke="#a4ada7" vector-effect="non-scaling-stroke" d="
  M 645.04 850.54
  L 645.06 924.73
  A 0.76 0.75 -6.9 0 0 646.00 925.46
  Q 658.89 922.38 671.48 917.48
  C 698.05 907.12 723.95 893.93 748.00 878.08
  Q 762.95 868.24 762.97 868.22
  Q 790.65 848.50 815.27 824.02
  Q 818.00 821.31 830.17 808.37
  C 834.93 803.31 837.93 799.09 842.20 794.61
  Q 845.82 790.82 850.78 783.97
  Q 855.56 777.38 860.32 770.86"
/>
<path stroke="#9faea3" vector-effect="non-scaling-stroke" d="
  M 860.32 770.86
  C 865.05 764.74 870.56 758.06 874.15 752.07
  Q 877.80 745.96 881.78 740.05
  C 884.14 736.54 886.47 731.50 888.82 727.27"
/>
<path stroke="#94b09d" vector-effect="non-scaling-stroke" d="
  M 888.82 727.27
  C 892.30 721.07 895.91 714.56 898.70 708.36
  Q 903.85 696.94 908.06 688.12
  C 912.76 678.28 915.28 670.27 919.50 658.35
  C 922.56 649.71 925.27 639.64 928.22 630.23
  Q 929.91 624.84 932.63 612.66"
/>
<path stroke="#91b89c" vector-effect="non-scaling-stroke" d="
  M 932.63 612.66
  Q 933.36 609.08 934.11 605.29
  Q 937.34 588.92 938.10 584.58
  Q 943.52 553.48 943.89 522.00
  Q 944.11 502.48 943.24 488.25
  Q 941.86 465.62 938.23 439.72
  C 935.24 418.43 930.33 398.49 924.00 378.71
  C 920.53 367.90 918.37 360.07 914.65 350.85
  C 904.78 326.38 892.91 302.85 879.81 280.03"
/>
<path stroke="#9ec8a1" vector-effect="non-scaling-stroke" d="
  M 879.81 280.03
  Q 870.36 263.89 862.49 252.76
  Q 844.38 227.13 820.73 202.82"
/>
<path stroke="#a1cf9f" vector-effect="non-scaling-stroke" d="
  M 820.73 202.82
  C 798.83 179.14 772.49 158.17 745.65 140.84
  C 732.77 132.52 722.15 125.87 708.96 119.29
  C 701.60 115.61 693.76 111.45 685.96 108.09
  Q 666.68 99.79 646.66 93.15"
/>
<path stroke="#acd69e" vector-effect="non-scaling-stroke" d="
  M 646.66 93.15
  Q 591.15 74.68 532.58 72.75"
/>
<path stroke="#b9dda1" vector-effect="non-scaling-stroke" d="
  M 532.58 72.75
  Q 518.25 71.53 504.00 72.23
  Q 485.89 73.11 471.69 74.19
  C 455.50 75.42 439.65 78.01 424.23 82.18
  C 412.21 85.43 402.95 87.51 391.70 91.11
  Q 371.98 97.41 347.85 106.91
  Q 341.68 109.33 338.53 110.94"
/>
<path stroke="#66b440" vector-effect="non-scaling-stroke" d="
  M 532.58 72.75
  C 513.74 83.03 496.84 94.56 483.00 111.23
  Q 477.10 118.35 471.08 130.73"
/>
<path stroke="#82c042" vector-effect="non-scaling-stroke" d="
  M 314.99 192.02
  Q 313.66 183.89 312.96 175.76
  Q 310.93 152.00 323.93 131.95
  Q 332.14 119.29 338.53 110.94"
/>
<path stroke="#4ea63e" vector-effect="non-scaling-stroke" d="
  M 646.66 93.15
  Q 626.29 109.03 601.37 116.55
  Q 579.72 123.08 557.94 129.97"
/>
<path stroke="#82c042" vector-effect="non-scaling-stroke" d="
  M 234.63 266.53
  C 223.79 262.76 213.64 260.56 202.14 262.28
  Q 192.05 263.80 186.20 266.04
  Q 168.57 272.81 150.67 279.52"
/>
<path stroke="#409841" vector-effect="non-scaling-stroke" d="
  M 820.73 202.82
  C 801.67 217.80 814.33 242.13 819.43 260.05
  C 822.48 270.76 822.22 281.51 820.71 292.55"
/>
<path stroke="#30813e" vector-effect="non-scaling-stroke" d="
  M 879.81 280.03
  C 873.04 279.69 868.60 283.99 865.38 289.11
  Q 860.31 297.21 851.76 312.09
  Q 847.31 319.83 842.48 327.58"
/>
<path stroke="#266839" vector-effect="non-scaling-stroke" d="
  M 932.63 612.66
  Q 917.37 621.69 902.82 631.29
  C 890.94 639.13 878.59 646.32 863.79 645.01"
/>
<path stroke="#345e40" vector-effect="non-scaling-stroke" d="
  M 888.82 727.27
  Q 883.20 719.25 881.55 715.46
  Q 878.01 707.29 875.06 701.99
  Q 873.03 698.35 869.69 696.64
  C 866.27 694.88 862.26 696.92 858.50 698.29
  C 852.41 700.52 847.56 695.76 843.67 691.26"
/>
<path stroke="#435b4a" vector-effect="non-scaling-stroke" d="
  M 860.32 770.86
  Q 840.06 764.31 819.67 758.80
  Q 811.38 756.55 803.52 753.47"
/>
<path stroke="#535e56" vector-effect="non-scaling-stroke" d="
  M 724.00 809.69
  C 717.96 811.08 715.06 817.79 711.71 822.84
  Q 707.80 828.75 705.76 830.94
  Q 696.47 840.90 681.47 841.84
  Q 672.49 842.41 659.91 842.94
  Q 655.83 843.11 645.77 845.14
  A 0.65 0.65 0.0 0 0 645.25 845.75
  L 645.04 850.54"
/>
<path stroke="#b9dda1" vector-effect="non-scaling-stroke" d="
  M 95.93 429.95
  Q 91.19 452.25 89.74 475.09"
/>
<path stroke="#acd69e" vector-effect="non-scaling-stroke" d="
  M 89.74 475.09
  Q 87.24 509.53 90.04 544.08"
/>
<path stroke="#a1cf9f" vector-effect="non-scaling-stroke" d="
  M 90.04 544.08
  C 91.55 566.81 96.47 589.11 101.65 611.32
  Q 103.49 619.21 106.18 628.25
  Q 108.99 637.68 111.18 645.06
  Q 113.75 653.70 122.45 675.17"
/>
<path stroke="#9ec8a1" vector-effect="non-scaling-stroke" d="
  M 122.45 675.17
  Q 132.66 700.13 145.75 724.35"
/>
<path stroke="#9cc0a1" vector-effect="non-scaling-stroke" d="
  M 145.75 724.35
  Q 157.74 747.65 172.30 767.69
  Q 212.91 823.60 269.40 864.58
  Q 286.34 876.86 303.97 887.85"
/>
<path stroke="#a1b8a6" vector-effect="non-scaling-stroke" d="
  M 303.97 887.85
  C 337.21 907.61 370.88 923.12 408.09 933.34
  Q 411.76 934.35 414.20 934.50"
/>
<path stroke="#9faea3" vector-effect="non-scaling-stroke" d="
  M 414.20 934.50
  C 416.84 935.14 419.71 936.19 422.04 936.67
  C 435.67 939.44 444.85 941.74 457.32 943.40
  Q 472.87 945.47 477.00 945.86
  Q 516.28 949.57 555.24 946.53
  Q 569.74 945.40 578.71 944.96
  A 0.28 0.27 88.9 0 0 578.97 944.68
  L 578.97 887.53
  A 0.59 0.59 0.0 0 0 578.33 886.94
  C 574.42 887.23 571.00 888.12 566.06 888.60
  Q 529.59 892.15 492.92 889.82"
/>
<path stroke="#a1b8a6" vector-effect="non-scaling-stroke" d="
  M 492.92 889.82
  Q 449.01 885.99 406.92 871.74"
/>
<path stroke="#9cc0a1" vector-effect="non-scaling-stroke" d="
  M 406.92 871.74
  Q 368.77 858.74 334.14 837.91
  C 326.83 833.52 318.60 828.04 312.81 823.69
  Q 312.16 823.20 294.54 809.66
  Q 271.82 792.21 252.56 770.91"
/>
<path stroke="#9ec8a1" vector-effect="non-scaling-stroke" d="
  M 252.56 770.91
  Q 238.64 755.87 232.13 746.87
  C 224.28 736.01 215.90 724.95 209.21 713.97
  Q 189.89 682.28 175.58 648.20"
/>
<path stroke="#a1cf9f" vector-effect="non-scaling-stroke" d="
  M 175.58 648.20
  Q 164.98 621.57 158.86 593.74
  Q 154.05 571.89 152.00 556.24
  Q 150.10 541.70 150.07 523.12"
/>
<path stroke="#acd69e" vector-effect="non-scaling-stroke" d="
  M 150.07 523.12
  C 149.75 502.61 149.91 484.95 152.75 465.35"
/>
<path stroke="#b9dda1" vector-effect="non-scaling-stroke" d="
  M 152.75 465.35
  L 155.55 446.06
  A 0.43 0.42 3.2 0 1 155.96 445.70
  Q 195.56 444.85 235.25 445.58
  Q 245.66 445.77 256.03 445.43"
/>
<path stroke="#acd69e" vector-effect="non-scaling-stroke" d="
  M 256.03 445.43
  Q 271.94 445.67 287.84 445.36
  Q 311.74 444.88 319.66 444.87
  Q 369.80 444.79 401.61 444.95
  Q 405.89 444.98 420.41 444.68
  Q 436.41 444.35 439.22 444.58
  Q 441.36 444.75 444.25 446.49
  C 451.17 450.64 456.59 456.30 456.62 464.78"
/>
<path stroke="#a1cf9f" vector-effect="non-scaling-stroke" d="
  M 456.62 464.78
  C 456.96 474.93 450.15 479.86 441.22 481.98"
/>
<path stroke="#acd69e" vector-effect="non-scaling-stroke" d="
  M 441.22 481.98
  L 360.00 482.68"
/>
<path stroke="#b9dda1" vector-effect="non-scaling-stroke" d="
  M 360.00 482.68
  L 225.37 482.84
  A 0.26 0.25 -88.8 0 0 225.12 483.09
  L 225.02 515.64"
/>
<path stroke="#acd69e" vector-effect="non-scaling-stroke" d="
  M 225.02 515.64
  L 224.47 539.68
  A 0.24 0.24 0.0 0 0 224.71 539.92
  L 328.31 539.99"
/>
<path stroke="#a1cf9f" vector-effect="non-scaling-stroke" d="
  M 328.31 539.99
  L 400.08 539.98"
/>
<path stroke="#9ec8a1" vector-effect="non-scaling-stroke" d="
  M 400.08 539.98
  C 414.42 540.02 428.78 539.47 443.15 539.50
  C 446.54 539.51 448.50 540.62 451.15 542.66
  C 458.72 548.51 462.88 558.62 458.68 567.59
  C 453.79 578.03 446.02 580.32 434.39 579.74
  Q 434.20 579.73 421.57 579.54
  Q 409.55 579.36 408.78 579.37
  Q 382.49 579.74 350.08 579.23
  C 334.72 578.98 319.24 579.21 305.75 579.42
  Q 305.74 579.42 296.75 579.27
  Q 271.95 578.86 225.91 579.13
  A 0.37 0.37 0.0 0 0 225.55 579.49
  L 225.06 639.60
  A 0.54 0.53 -90.0 0 0 225.60 640.15
  L 237.01 640.05"
/>
<path stroke="#9cc0a1" vector-effect="non-scaling-stroke" d="
  M 237.01 640.05
  L 432.92 640.26"
/>
<path stroke="#91b89c" vector-effect="non-scaling-stroke" d="
  M 432.92 640.26
  Q 452.20 641.17 471.14 638.21
  Q 477.77 637.17 484.06 634.56
  C 490.15 632.03 497.34 628.73 502.20 625.11
  Q 515.73 615.01 522.52 603.04
  Q 529.15 591.33 531.17 574.89
  C 532.75 562.07 530.37 550.37 525.02 538.44
  Q 522.16 532.05 519.29 528.42"
/>
<path stroke="#9cc0a1" vector-effect="non-scaling-stroke" d="
  M 519.29 528.42
  Q 510.03 515.65 496.40 508.12"
/>
<path stroke="#9ec8a1" vector-effect="non-scaling-stroke" d="
  M 496.40 508.12
  L 491.28 505.78
  A 0.35 0.35 0.0 0 1 491.31 505.14
  Q 499.35 502.19 505.61 496.11
  Q 507.02 494.75 509.20 490.56"
/>
<path stroke="#a1cf9f" vector-effect="non-scaling-stroke" d="
  M 509.20 490.56
  Q 516.11 482.17 517.91 477.14
  C 519.39 473.00 522.38 467.52 523.07 462.32"
/>
<path stroke="#acd69e" vector-effect="non-scaling-stroke" d="
  M 523.07 462.32
  C 523.81 457.47 524.78 452.60 524.72 447.84
  Q 524.58 435.29 521.48 426.05
  Q 515.32 407.71 497.50 395.63"
/>
<path stroke="#b9dda1" vector-effect="non-scaling-stroke" d="
  M 497.50 395.63
  Q 480.53 384.61 463.21 380.07
  Q 448.64 376.26 444.13 376.07
  C 427.96 375.40 411.64 375.94 395.46 376.09"
/>
<path stroke="#c8e2a0" vector-effect="non-scaling-stroke" d="
  M 395.46 376.09
  C 384.24 375.54 371.08 375.82 361.88 375.81
  Q 331.87 375.77 317.25 375.56
  Q 271.01 374.91 255.90 375.15
  C 249.49 375.26 243.19 374.74 235.79 374.93
  Q 231.41 375.05 220.71 375.00
  Q 164.35 374.78 109.66 375.16
  A 0.61 0.59 -81.4 0 0 109.09 375.59
  Q 101.23 402.35 95.93 429.95"
/>
<path stroke="#82c042" vector-effect="non-scaling-stroke" d="
  M 395.46 376.09
  L 396.86 376.40
  A 0.19 0.18 35.5 0 1 396.92 376.74
  C 386.30 383.17 375.24 385.94 362.95 388.67
  C 314.42 399.45 261.61 403.77 207.74 407.88
  Q 199.10 408.54 183.46 410.97
  Q 138.44 417.96 95.93 429.95"
/>
<path stroke="#66b440" vector-effect="non-scaling-stroke" d="
  M 497.50 395.63
  Q 468.96 406.01 437.71 410.44
  Q 405.72 414.98 358.75 423.11
  Q 328.14 428.41 310.04 433.07
  C 286.63 439.11 275.13 442.66 256.03 445.43"
/>
<path stroke="#66b440" vector-effect="non-scaling-stroke" d="
  M 152.75 465.35
  Q 138.01 463.66 127.27 464.24
  C 113.66 464.98 102.05 469.01 89.74 475.09"
/>
<path stroke="#4ea63e" vector-effect="non-scaling-stroke" d="
  M 150.07 523.12
  Q 130.78 524.07 113.52 532.05
  Q 101.57 537.57 90.04 544.08"
/>
<path stroke="#4ea63e" vector-effect="non-scaling-stroke" d="
  M 523.07 462.32
  Q 499.37 452.71 474.29 459.18
  Q 465.34 461.49 456.62 464.78"
/>
<path stroke="#409841" vector-effect="non-scaling-stroke" d="
  M 175.58 648.20
  C 154.79 651.68 137.92 660.89 122.45 675.17"
/>
<path stroke="#409841" vector-effect="non-scaling-stroke" d="
  M 509.20 490.56
  Q 486.71 490.22 467.16 496.04
  Q 433.38 506.11 421.93 508.81
  C 416.84 510.01 411.16 511.77 406.82 513.93
  C 393.93 520.32 393.63 528.26 400.08 539.98"
/>
<path stroke="#4ea63e" vector-effect="non-scaling-stroke" d="
  M 328.31 539.99
  Q 324.17 537.82 322.96 535.74
  C 318.57 528.18 333.90 518.87 338.89 516.51
  Q 351.49 510.55 365.97 506.76
  Q 384.66 501.86 404.81 496.94
  Q 422.36 492.66 441.22 481.98"
/>
<path stroke="#3b8943" vector-effect="non-scaling-stroke" d="
  M 252.56 770.91
  Q 258.46 781.09 263.88 791.37
  C 265.20 793.88 274.85 812.91 266.15 812.58
  C 261.68 812.40 256.34 807.87 253.38 804.83
  C 239.59 790.70 228.07 773.88 217.23 756.23
  Q 211.40 746.74 202.15 736.77
  Q 191.49 725.28 184.38 721.73
  C 171.16 715.14 158.76 717.62 145.75 724.35"
/>
<path stroke="#66b440" vector-effect="non-scaling-stroke" d="
  M 225.02 515.64
  Q 247.57 505.33 268.28 501.89
  Q 285.80 498.97 303.29 496.14
  Q 323.59 492.84 349.82 482.97
  A 2.90 2.74 32.6 0 1 350.76 482.79
  L 360.00 482.68"
/>
<path stroke="#3b8943" vector-effect="non-scaling-stroke" d="
  M 496.40 508.12
  C 490.57 514.20 485.77 520.68 486.05 529.38
  Q 486.22 534.70 486.49 541.60
  C 487.02 555.12 478.80 565.64 467.75 573.02
  C 455.66 581.10 443.25 584.65 427.96 588.72
  Q 384.77 600.22 352.65 607.39
  C 321.04 614.45 289.79 615.37 265.91 622.23
  Q 249.13 627.05 237.01 640.05"
/>
<path stroke="#3e7948" vector-effect="non-scaling-stroke" d="
  M 406.92 871.74
  Q 389.62 880.92 370.48 885.24
  Q 362.29 887.09 348.20 889.07
  Q 325.30 892.29 303.97 887.85"
/>
<path stroke="#2e793d" vector-effect="non-scaling-stroke" d="
  M 519.29 528.42
  Q 515.69 539.78 513.46 545.11
  Q 504.31 566.96 484.36 579.99
  Q 475.93 585.49 459.96 595.00
  C 454.07 598.51 441.12 607.35 440.42 615.24
  Q 439.78 622.56 438.89 625.63
  Q 437.21 631.46 432.92 640.26"
/>
<path stroke="#41674a" vector-effect="non-scaling-stroke" d="
  M 492.92 889.82
  C 473.11 900.93 458.62 907.01 438.83 916.77
  Q 424.47 923.85 414.20 934.50"
/>
</g>
<path fill="#ffffff" d="
  M 1024.00 0.00
  L 1024.00 1024.00
  L 0.00 1024.00
  L 0.00 0.00
  L 1024.00 0.00
  Z
  M 338.53 110.94
  Q 318.93 120.80 312.81 124.07
  Q 255.44 154.70 209.96 201.70
  Q 190.96 221.34 184.12 230.62
  C 168.90 251.25 160.28 262.08 150.67 279.52
  C 149.63 281.44 148.72 283.19 147.28 285.07
  Q 143.93 289.48 140.21 297.20
  Q 133.72 310.65 130.91 317.99
  A 0.78 0.77 10.5 0 0 131.64 319.04
  L 197.62 319.04
  A 1.87 1.87 0.0 0 0 199.20 318.17
  Q 215.89 291.81 234.63 266.53
  Q 245.00 253.96 250.30 248.05
  Q 273.51 222.16 301.60 201.66
  Q 308.26 196.80 314.99 192.02
  Q 331.11 181.12 348.20 171.86
  C 356.28 167.48 364.70 163.90 373.18 159.59
  Q 381.21 155.51 392.25 151.13
  Q 410.71 143.81 428.84 139.02
  C 441.20 135.76 457.02 133.22 471.08 130.73
  C 499.76 127.13 529.23 127.45 557.94 129.97
  C 566.09 131.33 574.80 132.40 582.30 133.96
  C 609.88 139.66 634.95 146.94 660.91 158.15
  C 685.78 168.90 711.50 184.97 734.85 202.65
  C 756.92 219.36 777.70 239.55 795.34 259.41
  Q 804.54 269.77 820.71 292.55
  Q 832.74 309.35 842.48 327.58
  Q 848.72 340.13 850.96 345.00
  Q 858.92 362.30 865.35 380.04
  Q 871.68 397.53 875.89 415.74
  C 881.54 440.16 886.07 464.60 886.98 489.01
  C 888.08 518.88 887.48 551.28 881.49 580.75
  Q 880.81 584.10 877.54 599.26
  C 874.08 615.31 869.48 630.05 863.79 645.01
  Q 855.33 668.83 843.67 691.26
  Q 832.84 712.61 821.14 728.89
  Q 812.92 740.33 808.64 746.69
  C 807.06 749.02 805.22 751.18 803.52 753.47
  Q 785.46 773.09 766.11 791.36
  Q 762.05 795.19 756.43 799.72
  C 747.30 807.07 738.28 814.62 729.18 820.68
  Q 726.80 822.28 725.34 822.68
  A 0.81 0.81 0.0 0 1 724.32 821.92
  L 724.00 809.69
  L 724.08 447.81
  A 0.57 0.57 0.0 0 1 724.65 447.24
  L 847.55 447.24
  A 0.54 0.54 0.0 0 0 848.09 446.70
  L 848.68 375.46
  A 0.38 0.37 0.7 0 0 848.30 375.08
  L 513.91 375.08
  A 0.53 0.53 0.0 0 0 513.63 376.06
  Q 531.19 386.97 539.80 406.09
  C 543.98 415.37 545.05 425.56 546.42 435.50
  Q 547.05 440.07 546.71 446.37
  A 0.62 0.62 0.0 0 0 547.31 447.02
  Q 591.34 447.77 643.00 447.23
  Q 643.97 447.22 644.88 446.88
  A 0.82 0.81 79.1 0 1 645.97 447.62
  Q 646.13 452.40 645.77 462.74
  Q 645.09 482.13 645.09 492.50
  Q 645.18 671.52 645.04 850.54
  L 645.06 924.73
  A 0.76 0.75 -6.9 0 0 646.00 925.46
  Q 658.89 922.38 671.48 917.48
  C 698.05 907.12 723.95 893.93 748.00 878.08
  Q 762.95 868.24 762.97 868.22
  Q 790.65 848.50 815.27 824.02
  Q 818.00 821.31 830.17 808.37
  C 834.93 803.31 837.93 799.09 842.20 794.61
  Q 845.82 790.82 850.78 783.97
  Q 855.56 777.38 860.32 770.86
  C 865.05 764.74 870.56 758.06 874.15 752.07
  Q 877.80 745.96 881.78 740.05
  C 884.14 736.54 886.47 731.50 888.82 727.27
  C 892.30 721.07 895.91 714.56 898.70 708.36
  Q 903.85 696.94 908.06 688.12
  C 912.76 678.28 915.28 670.27 919.50 658.35
  C 922.56 649.71 925.27 639.64 928.22 630.23
  Q 929.91 624.84 932.63 612.66
  Q 933.36 609.08 934.11 605.29
  Q 937.34 588.92 938.10 584.58
  Q 943.52 553.48 943.89 522.00
  Q 944.11 502.48 943.24 488.25
  Q 941.86 465.62 938.23 439.72
  C 935.24 418.43 930.33 398.49 924.00 378.71
  C 920.53 367.90 918.37 360.07 914.65 350.85
  C 904.78 326.38 892.91 302.85 879.81 280.03
  Q 870.36 263.89 862.49 252.76
  Q 844.38 227.13 820.73 202.82
  C 798.83 179.14 772.49 158.17 745.65 140.84
  C 732.77 132.52 722.15 125.87 708.96 119.29
  C 701.60 115.61 693.76 111.45 685.96 108.09
  Q 666.68 99.79 646.66 93.15
  Q 591.15 74.68 532.58 72.75
  Q 518.25 71.53 504.00 72.23
  Q 485.89 73.11 471.69 74.19
  C 455.50 75.42 439.65 78.01 424.23 82.18
  C 412.21 85.43 402.95 87.51 391.70 91.11
  Q 371.98 97.41 347.85 106.91
  Q 341.68 109.33 338.53 110.94
  Z
  M 95.93 429.95
  Q 91.19 452.25 89.74 475.09
  Q 87.24 509.53 90.04 544.08
  C 91.55 566.81 96.47 589.11 101.65 611.32
  Q 103.49 619.21 106.18 628.25
  Q 108.99 637.68 111.18 645.06
  Q 113.75 653.70 122.45 675.17
  Q 132.66 700.13 145.75 724.35
  Q 157.74 747.65 172.30 767.69
  Q 212.91 823.60 269.40 864.58
  Q 286.34 876.86 303.97 887.85
  C 337.21 907.61 370.88 923.12 408.09 933.34
  Q 411.76 934.35 414.20 934.50
  C 416.84 935.14 419.71 936.19 422.04 936.67
  C 435.67 939.44 444.85 941.74 457.32 943.40
  Q 472.87 945.47 477.00 945.86
  Q 516.28 949.57 555.24 946.53
  Q 569.74 945.40 578.71 944.96
  A 0.28 0.27 88.9 0 0 578.97 944.68
  L 578.97 887.53
  A 0.59 0.59 0.0 0 0 578.33 886.94
  C 574.42 887.23 571.00 888.12 566.06 888.60
  Q 529.59 892.15 492.92 889.82
  Q 449.01 885.99 406.92 871.74
  Q 368.77 858.74 334.14 837.91
  C 326.83 833.52 318.60 828.04 312.81 823.69
  Q 312.16 823.20 294.54 809.66
  Q 271.82 792.21 252.56 770.91
  Q 238.64 755.87 232.13 746.87
  C 224.28 736.01 215.90 724.95 209.21 713.97
  Q 189.89 682.28 175.58 648.20
  Q 164.98 621.57 158.86 593.74
  Q 154.05 571.89 152.00 556.24
  Q 150.10 541.70 150.07 523.12
  C 149.75 502.61 149.91 484.95 152.75 465.35
  L 155.55 446.06
  A 0.43 0.42 3.2 0 1 155.96 445.70
  Q 195.56 444.85 235.25 445.58
  Q 245.66 445.77 256.03 445.43
  Q 271.94 445.67 287.84 445.36
  Q 311.74 444.88 319.66 444.87
  Q 369.80 444.79 401.61 444.95
  Q 405.89 444.98 420.41 444.68
  Q 436.41 444.35 439.22 444.58
  Q 441.36 444.75 444.25 446.49
  C 451.17 450.64 456.59 456.30 456.62 464.78
  C 456.96 474.93 450.15 479.86 441.22 481.98
  L 360.00 482.68
  L 225.37 482.84
  A 0.26 0.25 -88.8 0 0 225.12 483.09
  L 225.02 515.64
  L 224.47 539.68
  A 0.24 0.24 0.0 0 0 224.71 539.92
  L 328.31 539.99
  L 400.08 539.98
  C 414.42 540.02 428.78 539.47 443.15 539.50
  C 446.54 539.51 448.50 540.62 451.15 542.66
  C 458.72 548.51 462.88 558.62 458.68 567.59
  C 453.79 578.03 446.02 580.32 434.39 579.74
  Q 434.20 579.73 421.57 579.54
  Q 409.55 579.36 408.78 579.37
  Q 382.49 579.74 350.08 579.23
  C 334.72 578.98 319.24 579.21 305.75 579.42
  Q 305.74 579.42 296.75 579.27
  Q 271.95 578.86 225.91 579.13
  A 0.37 0.37 0.0 0 0 225.55 579.49
  L 225.06 639.60
  A 0.54 0.53 -90.0 0 0 225.60 640.15
  L 237.01 640.05
  L 432.92 640.26
  Q 452.20 641.17 471.14 638.21
  Q 477.77 637.17 484.06 634.56
  C 490.15 632.03 497.34 628.73 502.20 625.11
  Q 515.73 615.01 522.52 603.04
  Q 529.15 591.33 531.17 574.89
  C 532.75 562.07 530.37 550.37 525.02 538.44
  Q 522.16 532.05 519.29 528.42
  Q 510.03 515.65 496.40 508.12
  L 491.28 505.78
  A 0.35 0.35 0.0 0 1 491.31 505.14
  Q 499.35 502.19 505.61 496.11
  Q 507.02 494.75 509.20 490.56
  Q 516.11 482.17 517.91 477.14
  C 519.39 473.00 522.38 467.52 523.07 462.32
  C 523.81 457.47 524.78 452.60 524.72 447.84
  Q 524.58 435.29 521.48 426.05
  Q 515.32 407.71 497.50 395.63
  Q 480.53 384.61 463.21 380.07
  Q 448.64 376.26 444.13 376.07
  C 427.96 375.40 411.64 375.94 395.46 376.09
  C 384.24 375.54 371.08 375.82 361.88 375.81
  Q 331.87 375.77 317.25 375.56
  Q 271.01 374.91 255.90 375.15
  C 249.49 375.26 243.19 374.74 235.79 374.93
  Q 231.41 375.05 220.71 375.00
  Q 164.35 374.78 109.66 375.16
  A 0.61 0.59 -81.4 0 0 109.09 375.59
  Q 101.23 402.35 95.93 429.95
  Z"
/>
<path fill="#73bb43" d="
  M 532.58 72.75
  C 513.74 83.03 496.84 94.56 483.00 111.23
  Q 477.10 118.35 471.08 130.73
  C 457.02 133.22 441.20 135.76 428.84 139.02
  Q 410.71 143.81 392.25 151.13
  Q 381.21 155.51 373.18 159.59
  C 364.70 163.90 356.28 167.48 348.20 171.86
  Q 331.11 181.12 314.99 192.02
  Q 313.66 183.89 312.96 175.76
  Q 310.93 152.00 323.93 131.95
  Q 332.14 119.29 338.53 110.94
  Q 341.68 109.33 347.85 106.91
  Q 371.98 97.41 391.70 91.11
  C 402.95 87.51 412.21 85.43 424.23 82.18
  C 439.65 78.01 455.50 75.42 471.69 74.19
  Q 485.89 73.11 504.00 72.23
  Q 518.25 71.53 532.58 72.75
  Z"
/>
<path fill="#59ac3c" d="
  M 646.66 93.15
  Q 626.29 109.03 601.37 116.55
  Q 579.72 123.08 557.94 129.97
  C 529.23 127.45 499.76 127.13 471.08 130.73
  Q 477.10 118.35 483.00 111.23
  C 496.84 94.56 513.74 83.03 532.58 72.75
  Q 591.15 74.68 646.66 93.15
  Z"
/>
<path fill="#439f3f" d="
  M 646.66 93.15
  Q 666.68 99.79 685.96 108.09
  C 693.76 111.45 701.60 115.61 708.96 119.29
  C 722.15 125.87 732.77 132.52 745.65 140.84
  C 772.49 158.17 798.83 179.14 820.73 202.82
  C 801.67 217.80 814.33 242.13 819.43 260.05
  C 822.48 270.76 822.22 281.51 820.71 292.55
  Q 804.54 269.77 795.34 259.41
  C 777.70 239.55 756.92 219.36 734.85 202.65
  C 711.50 184.97 685.78 168.90 660.91 158.15
  C 634.95 146.94 609.88 139.66 582.30 133.96
  C 574.80 132.40 566.09 131.33 557.94 129.97
  Q 579.72 123.08 601.37 116.55
  Q 626.29 109.03 646.66 93.15
  Z"
/>
<path fill="#90c540" d="
  M 338.53 110.94
  Q 332.14 119.29 323.93 131.95
  Q 310.93 152.00 312.96 175.76
  Q 313.66 183.89 314.99 192.02
  Q 308.26 196.80 301.60 201.66
  Q 273.51 222.16 250.30 248.05
  Q 245.00 253.96 234.63 266.53
  C 223.79 262.76 213.64 260.56 202.14 262.28
  Q 192.05 263.80 186.20 266.04
  Q 168.57 272.81 150.67 279.52
  C 160.28 262.08 168.90 251.25 184.12 230.62
  Q 190.96 221.34 209.96 201.70
  Q 255.44 154.70 312.81 124.07
  Q 318.93 120.80 338.53 110.94
  Z"
/>
<path fill="#3d9143" d="
  M 820.73 202.82
  Q 844.38 227.13 862.49 252.76
  Q 870.36 263.89 879.81 280.03
  C 873.04 279.69 868.60 283.99 865.38 289.11
  Q 860.31 297.21 851.76 312.09
  Q 847.31 319.83 842.48 327.58
  Q 832.74 309.35 820.71 292.55
  C 822.22 281.51 822.48 270.76 819.43 260.05
  C 814.33 242.13 801.67 217.80 820.73 202.82
  Z"
/>
<path fill="#73bb43" d="
  M 234.63 266.53
  Q 215.89 291.81 199.20 318.17
  A 1.87 1.87 0.0 0 1 197.62 319.04
  L 131.64 319.04
  A 0.78 0.77 10.5 0 1 130.91 317.99
  Q 133.72 310.65 140.21 297.20
  Q 143.93 289.48 147.28 285.07
  C 148.72 283.19 149.63 281.44 150.67 279.52
  Q 168.57 272.81 186.20 266.04
  Q 192.05 263.80 202.14 262.28
  C 213.64 260.56 223.79 262.76 234.63 266.53
  Z"
/>
<path fill="#237038" d="
  M 879.81 280.03
  C 892.91 302.85 904.78 326.38 914.65 350.85
  C 918.37 360.07 920.53 367.90 924.00 378.71
  C 930.33 398.49 935.24 418.43 938.23 439.72
  Q 941.86 465.62 943.24 488.25
  Q 944.11 502.48 943.89 522.00
  Q 943.52 553.48 938.10 584.58
  Q 937.34 588.92 934.11 605.29
  Q 933.36 609.08 932.63 612.66
  Q 917.37 621.69 902.82 631.29
  C 890.94 639.13 878.59 646.32 863.79 645.01
  C 869.48 630.05 874.08 615.31 877.54 599.26
  Q 880.81 584.10 881.49 580.75
  C 887.48 551.28 888.08 518.88 886.98 489.01
  C 886.07 464.60 881.54 440.16 875.89 415.74
  Q 871.68 397.53 865.35 380.04
  Q 858.92 362.30 850.96 345.00
  Q 848.72 340.13 842.48 327.58
  Q 847.31 319.83 851.76 312.09
  Q 860.31 297.21 865.38 289.11
  C 868.60 283.99 873.04 279.69 879.81 280.03
  Z"
/>
<path fill="#90c540" d="
  M 395.46 376.09
  L 396.86 376.40
  A 0.19 0.18 35.5 0 1 396.92 376.74
  C 386.30 383.17 375.24 385.94 362.95 388.67
  C 314.42 399.45 261.61 403.77 207.74 407.88
  Q 199.10 408.54 183.46 410.97
  Q 138.44 417.96 95.93 429.95
  Q 101.23 402.35 109.09 375.59
  A 0.61 0.59 -81.4 0 1 109.66 375.16
  Q 164.35 374.78 220.71 375.00
  Q 231.41 375.05 235.79 374.93
  C 243.19 374.74 249.49 375.26 255.90 375.15
  Q 271.01 374.91 317.25 375.56
  Q 331.87 375.77 361.88 375.81
  C 371.08 375.82 384.24 375.54 395.46 376.09
  Z"
/>
<path fill="#5e615e" d="
  M 724.00 809.69
  C 717.96 811.08 715.06 817.79 711.71 822.84
  Q 707.80 828.75 705.76 830.94
  Q 696.47 840.90 681.47 841.84
  Q 672.49 842.41 659.91 842.94
  Q 655.83 843.11 645.77 845.14
  A 0.65 0.65 0.0 0 0 645.25 845.75
  L 645.04 850.54
  Q 645.18 671.52 645.09 492.50
  Q 645.09 482.13 645.77 462.74
  Q 646.13 452.40 645.97 447.62
  A 0.82 0.81 79.1 0 0 644.88 446.88
  Q 643.97 447.22 643.00 447.23
  Q 591.34 447.77 547.31 447.02
  A 0.62 0.62 0.0 0 1 546.71 446.37
  Q 547.05 440.07 546.42 435.50
  C 545.05 425.56 543.98 415.37 539.80 406.09
  Q 531.19 386.97 513.63 376.06
  A 0.53 0.53 0.0 0 1 513.91 375.08
  L 848.30 375.08
  A 0.38 0.37 0.7 0 1 848.68 375.46
  L 848.09 446.70
  A 0.54 0.54 0.0 0 1 847.55 447.24
  L 724.65 447.24
  A 0.57 0.57 0.0 0 0 724.08 447.81
  L 724.00 809.69
  Z"
/>
<path fill="#73bb43" d="
  M 497.50 395.63
  Q 468.96 406.01 437.71 410.44
  Q 405.72 414.98 358.75 423.11
  Q 328.14 428.41 310.04 433.07
  C 286.63 439.11 275.13 442.66 256.03 445.43
  Q 245.66 445.77 235.25 445.58
  Q 195.56 444.85 155.96 445.70
  A 0.43 0.42 3.2 0 0 155.55 446.06
  L 152.75 465.35
  Q 138.01 463.66 127.27 464.24
  C 113.66 464.98 102.05 469.01 89.74 475.09
  Q 91.19 452.25 95.93 429.95
  Q 138.44 417.96 183.46 410.97
  Q 199.10 408.54 207.74 407.88
  C 261.61 403.77 314.42 399.45 362.95 388.67
  C 375.24 385.94 386.30 383.17 396.92 376.74
  A 0.19 0.18 35.5 0 0 396.86 376.40
  L 395.46 376.09
  C 411.64 375.94 427.96 375.40 444.13 376.07
  Q 448.64 376.26 463.21 380.07
  Q 480.53 384.61 497.50 395.63
  Z"
/>
<path fill="#59ac3c" d="
  M 497.50 395.63
  Q 515.32 407.71 521.48 426.05
  Q 524.58 435.29 524.72 447.84
  C 524.78 452.60 523.81 457.47 523.07 462.32
  Q 499.37 452.71 474.29 459.18
  Q 465.34 461.49 456.62 464.78
  C 456.59 456.30 451.17 450.64 444.25 446.49
  Q 441.36 444.75 439.22 444.58
  Q 436.41 444.35 420.41 444.68
  Q 405.89 444.98 401.61 444.95
  Q 369.80 444.79 319.66 444.87
  Q 311.74 444.88 287.84 445.36
  Q 271.94 445.67 256.03 445.43
  C 275.13 442.66 286.63 439.11 310.04 433.07
  Q 328.14 428.41 358.75 423.11
  Q 405.72 414.98 437.71 410.44
  Q 468.96 406.01 497.50 395.63
  Z"
/>
<path fill="#439f3f" d="
  M 523.07 462.32
  C 522.38 467.52 519.39 473.00 517.91 477.14
  Q 516.11 482.17 509.20 490.56
  Q 486.71 490.22 467.16 496.04
  Q 433.38 506.11 421.93 508.81
  C 416.84 510.01 411.16 511.77 406.82 513.93
  C 393.93 520.32 393.63 528.26 400.08 539.98
  L 328.31 539.99
  Q 324.17 537.82 322.96 535.74
  C 318.57 528.18 333.90 518.87 338.89 516.51
  Q 351.49 510.55 365.97 506.76
  Q 384.66 501.86 404.81 496.94
  Q 422.36 492.66 441.22 481.98
  C 450.15 479.86 456.96 474.93 456.62 464.78
  Q 465.34 461.49 474.29 459.18
  Q 499.37 452.71 523.07 462.32
  Z"
/>
<path fill="#59ac3c" d="
  M 152.75 465.35
  C 149.91 484.95 149.75 502.61 150.07 523.12
  Q 130.78 524.07 113.52 532.05
  Q 101.57 537.57 90.04 544.08
  Q 87.24 509.53 89.74 475.09
  C 102.05 469.01 113.66 464.98 127.27 464.24
  Q 138.01 463.66 152.75 465.35
  Z"
/>
<path fill="#59ac3c" d="
  M 441.22 481.98
  Q 422.36 492.66 404.81 496.94
  Q 384.66 501.86 365.97 506.76
  Q 351.49 510.55 338.89 516.51
  C 333.90 518.87 318.57 528.18 322.96 535.74
  Q 324.17 537.82 328.31 539.99
  L 224.71 539.92
  A 0.24 0.24 0.0 0 1 224.47 539.68
  L 225.02 515.64
  Q 247.57 505.33 268.28 501.89
  Q 285.80 498.97 303.29 496.14
  Q 323.59 492.84 349.82 482.97
  A 2.90 2.74 32.6 0 1 350.76 482.79
  L 360.00 482.68
  L 441.22 481.98
  Z"
/>
<path fill="#73bb43" d="
  M 360.00 482.68
  L 350.76 482.79
  A 2.90 2.74 32.6 0 0 349.82 482.97
  Q 323.59 492.84 303.29 496.14
  Q 285.80 498.97 268.28 501.89
  Q 247.57 505.33 225.02 515.64
  L 225.12 483.09
  A 0.26 0.25 -88.8 0 1 225.37 482.84
  L 360.00 482.68
  Z"
/>
<path fill="#3d9143" d="
  M 509.20 490.56
  Q 507.02 494.75 505.61 496.11
  Q 499.35 502.19 491.31 505.14
  A 0.35 0.35 0.0 0 0 491.28 505.78
  L 496.40 508.12
  C 490.57 514.20 485.77 520.68 486.05 529.38
  Q 486.22 534.70 486.49 541.60
  C 487.02 555.12 478.80 565.64 467.75 573.02
  C 455.66 581.10 443.25 584.65 427.96 588.72
  Q 384.77 600.22 352.65 607.39
  C 321.04 614.45 289.79 615.37 265.91 622.23
  Q 249.13 627.05 237.01 640.05
  L 225.60 640.15
  A 0.54 0.53 -90.0 0 1 225.06 639.60
  L 225.55 579.49
  A 0.37 0.37 0.0 0 1 225.91 579.13
  Q 271.95 578.86 296.75 579.27
  Q 305.74 579.42 305.75 579.42
  C 319.24 579.21 334.72 578.98 350.08 579.23
  Q 382.49 579.74 408.78 579.37
  Q 409.55 579.36 421.57 579.54
  Q 434.20 579.73 434.39 579.74
  C 446.02 580.32 453.79 578.03 458.68 567.59
  C 462.88 558.62 458.72 548.51 451.15 542.66
  C 448.50 540.62 446.54 539.51 443.15 539.50
  C 428.78 539.47 414.42 540.02 400.08 539.98
  C 393.63 528.26 393.93 520.32 406.82 513.93
  C 411.16 511.77 416.84 510.01 421.93 508.81
  Q 433.38 506.11 467.16 496.04
  Q 486.71 490.22 509.20 490.56
  Z"
/>
<path fill="#388142" d="
  M 496.40 508.12
  Q 510.03 515.65 519.29 528.42
  Q 515.69 539.78 513.46 545.11
  Q 504.31 566.96 484.36 579.99
  Q 475.93 585.49 459.96 595.00
  C 454.07 598.51 441.12 607.35 440.42 615.24
  Q 439.78 622.56 438.89 625.63
  Q 437.21 631.46 432.92 640.26
  L 237.01 640.05
  Q 249.13 627.05 265.91 622.23
  C 289.79 615.37 321.04 614.45 352.65 607.39
  Q 384.77 600.22 427.96 588.72
  C 443.25 584.65 455.66 581.10 467.75 573.02
  C 478.80 565.64 487.02 555.12 486.49 541.60
  Q 486.22 534.70 486.05 529.38
  C 485.77 520.68 490.57 514.20 496.40 508.12
  Z"
/>
<path fill="#439f3f" d="
  M 150.07 523.12
  Q 150.10 541.70 152.00 556.24
  Q 154.05 571.89 158.86 593.74
  Q 164.98 621.57 175.58 648.20
  C 154.79 651.68 137.92 660.89 122.45 675.17
  Q 113.75 653.70 111.18 645.06
  Q 108.99 637.68 106.18 628.25
  Q 103.49 619.21 101.65 611.32
  C 96.47 589.11 91.55 566.81 90.04 544.08
  Q 101.57 537.57 113.52 532.05
  Q 130.78 524.07 150.07 523.12
  Z"
/>
<path fill="#237038" d="
  M 519.29 528.42
  Q 522.16 532.05 525.02 538.44
  C 530.37 550.37 532.75 562.07 531.17 574.89
  Q 529.15 591.33 522.52 603.04
  Q 515.73 615.01 502.20 625.11
  C 497.34 628.73 490.15 632.03 484.06 634.56
  Q 477.77 637.17 471.14 638.21
  Q 452.20 641.17 432.92 640.26
  Q 437.21 631.46 438.89 625.63
  Q 439.78 622.56 440.42 615.24
  C 441.12 607.35 454.07 598.51 459.96 595.00
  Q 475.93 585.49 484.36 579.99
  Q 504.31 566.96 513.46 545.11
  Q 515.69 539.78 519.29 528.42
  Z"
/>
<path fill="#29603a" d="
  M 932.63 612.66
  Q 929.91 624.84 928.22 630.23
  C 925.27 639.64 922.56 649.71 919.50 658.35
  C 915.28 670.27 912.76 678.28 908.06 688.12
  Q 903.85 696.94 898.70 708.36
  C 895.91 714.56 892.30 721.07 888.82 727.27
  Q 883.20 719.25 881.55 715.46
  Q 878.01 707.29 875.06 701.99
  Q 873.03 698.35 869.69 696.64
  C 866.27 694.88 862.26 696.92 858.50 698.29
  C 852.41 700.52 847.56 695.76 843.67 691.26
  Q 855.33 668.83 863.79 645.01
  C 878.59 646.32 890.94 639.13 902.82 631.29
  Q 917.37 621.69 932.63 612.66
  Z"
/>
<path fill="#3d9143" d="
  M 175.58 648.20
  Q 189.89 682.28 209.21 713.97
  C 215.90 724.95 224.28 736.01 232.13 746.87
  Q 238.64 755.87 252.56 770.91
  Q 258.46 781.09 263.88 791.37
  C 265.20 793.88 274.85 812.91 266.15 812.58
  C 261.68 812.40 256.34 807.87 253.38 804.83
  C 239.59 790.70 228.07 773.88 217.23 756.23
  Q 211.40 746.74 202.15 736.77
  Q 191.49 725.28 184.38 721.73
  C 171.16 715.14 158.76 717.62 145.75 724.35
  Q 132.66 700.13 122.45 675.17
  C 137.92 660.89 154.79 651.68 175.58 648.20
  Z"
/>
<path fill="#3e5c46" d="
  M 888.82 727.27
  C 886.47 731.50 884.14 736.54 881.78 740.05
  Q 877.80 745.96 874.15 752.07
  C 870.56 758.06 865.05 764.74 860.32 770.86
  Q 840.06 764.31 819.67 758.80
  Q 811.38 756.55 803.52 753.47
  C 805.22 751.18 807.06 749.02 808.64 746.69
  Q 812.92 740.33 821.14 728.89
  Q 832.84 712.61 843.67 691.26
  C 847.56 695.76 852.41 700.52 858.50 698.29
  C 862.26 696.92 866.27 694.88 869.69 696.64
  Q 873.03 698.35 875.06 701.99
  Q 878.01 707.29 881.55 715.46
  Q 883.20 719.25 888.82 727.27
  Z"
/>
<path fill="#388142" d="
  M 252.56 770.91
  Q 271.82 792.21 294.54 809.66
  Q 312.16 823.20 312.81 823.69
  C 318.60 828.04 326.83 833.52 334.14 837.91
  Q 368.77 858.74 406.92 871.74
  Q 389.62 880.92 370.48 885.24
  Q 362.29 887.09 348.20 889.07
  Q 325.30 892.29 303.97 887.85
  Q 286.34 876.86 269.40 864.58
  Q 212.91 823.60 172.30 767.69
  Q 157.74 747.65 145.75 724.35
  C 158.76 717.62 171.16 715.14 184.38 721.73
  Q 191.49 725.28 202.15 736.77
  Q 211.40 746.74 217.23 756.23
  C 228.07 773.88 239.59 790.70 253.38 804.83
  C 256.34 807.87 261.68 812.40 266.15 812.58
  C 274.85 812.91 265.20 793.88 263.88 791.37
  Q 258.46 781.09 252.56 770.91
  Z"
/>
<path fill="#485a4e" d="
  M 803.52 753.47
  Q 811.38 756.55 819.67 758.80
  Q 840.06 764.31 860.32 770.86
  Q 855.56 777.38 850.78 783.97
  Q 845.82 790.82 842.20 794.61
  C 837.93 799.09 834.93 803.31 830.17 808.37
  Q 818.00 821.31 815.27 824.02
  Q 790.65 848.50 762.97 868.22
  Q 762.95 868.24 748.00 878.08
  C 723.95 893.93 698.05 907.12 671.48 917.48
  Q 658.89 922.38 646.00 925.46
  A 0.76 0.75 -6.9 0 1 645.06 924.73
  L 645.04 850.54
  L 645.25 845.75
  A 0.65 0.65 0.0 0 1 645.77 845.14
  Q 655.83 843.11 659.91 842.94
  Q 672.49 842.41 681.47 841.84
  Q 696.47 840.90 705.76 830.94
  Q 707.80 828.75 711.71 822.84
  C 715.06 817.79 717.96 811.08 724.00 809.69
  L 724.32 821.92
  A 0.81 0.81 0.0 0 0 725.34 822.68
  Q 726.80 822.28 729.18 820.68
  C 738.28 814.62 747.30 807.07 756.43 799.72
  Q 762.05 795.19 766.11 791.36
  Q 785.46 773.09 803.52 753.47
  Z"
/>
<path fill="#43714d" d="
  M 492.92 889.82
  C 473.11 900.93 458.62 907.01 438.83 916.77
  Q 424.47 923.85 414.20 934.50
  Q 411.76 934.35 408.09 933.34
  C 370.88 923.12 337.21 907.61 303.97 887.85
  Q 325.30 892.29 348.20 889.07
  Q 362.29 887.09 370.48 885.24
  Q 389.62 880.92 406.92 871.74
  Q 449.01 885.99 492.92 889.82
  Z"
/>
<path fill="#3e5c46" d="
  M 414.20 934.50
  Q 424.47 923.85 438.83 916.77
  C 458.62 907.01 473.11 900.93 492.92 889.82
  Q 529.59 892.15 566.06 888.60
  C 571.00 888.12 574.42 887.23 578.33 886.94
  A 0.59 0.59 0.0 0 1 578.97 887.53
  L 578.97 944.68
  A 0.28 0.27 88.9 0 1 578.71 944.96
  Q 569.74 945.40 555.24 946.53
  Q 516.28 949.57 477.00 945.86
  Q 472.87 945.47 457.32 943.40
  C 444.85 941.74 435.67 939.44 422.04 936.67
  C 419.71 936.19 416.84 935.14 414.20 934.50
  Z"
/>
</svg>
