<?xml version="1.0" encoding="UTF-8" standalone="no"?>
<!DOCTYPE svg PUBLIC "-//W3C//DTD SVG 1.1//EN" "http://www.w3.org/Graphics/SVG/1.1/DTD/svg11.dtd">
<svg xmlns="http://www.w3.org/2000/svg" version="1.1" viewBox="0.00 0.00 1024.00 683.00">
<g stroke-width="2.00" fill="none" stroke-linecap="butt">
<path stroke="#9cb5a7" vector-effect="non-scaling-stroke" d="
  M 318.81 281.00
  Q 340.88 307.19 337.81 342.01
  C 336.35 358.60 330.25 372.24 319.87 385.18"
/>
<path stroke="#a2a6aa" vector-effect="non-scaling-stroke" d="
  M 319.87 385.18
  Q 311.97 394.19 302.12 400.95
  A 0.38 0.38 0.0 0 1 301.53 400.64
  L 301.53 322.79
  A 0.47 0.47 0.0 0 1 302.00 322.32
  L 329.49 322.32
  A 0.88 0.87 0.0 0 0 330.37 321.45
  L 330.37 307.12
  A 0.57 0.57 0.0 0 0 329.80 306.55
  L 254.64 306.55
  A 0.48 0.48 0.0 0 0 254.35 307.41
  Q 261.58 313.00 261.76 321.90
  A 0.37 0.37 0.0 0 0 262.13 322.27
  L 282.96 322.27
  A 0.62 0.62 0.0 0 1 283.58 322.89
  L 283.58 423.05
  A 0.45 0.45 0.0 0 0 284.17 423.48
  C 303.46 417.26 320.29 406.50 332.55 390.21"
/>
<path stroke="#9cb5a7" vector-effect="non-scaling-stroke" d="
  M 332.55 390.21
  Q 350.45 367.06 351.06 337.77
  Q 351.36 323.44 348.58 311.95
  Q 342.73 287.78 324.82 269.32"
/>
<path stroke="#abcfa5" vector-effect="non-scaling-stroke" d="
  M 324.82 269.32
  C 313.77 257.90 299.46 249.37 284.35 244.23
  C 260.66 236.17 233.90 239.02 212.13 250.63
  Q 197.20 258.59 184.64 273.01
  C 179.70 278.69 175.05 286.90 171.33 293.67
  A 0.66 0.66 0.0 0 0 171.91 294.65
  L 184.51 294.65
  A 2.86 2.86 0.0 0 0 186.97 293.25
  C 199.01 272.88 219.14 257.49 242.34 253.28
  C 271.24 248.04 299.67 258.91 318.81 281.00"
/>
<path stroke="#4a864f" vector-effect="non-scaling-stroke" d="
  M 324.82 269.32
  Q 320.62 274.71 318.81 281.00"
/>
<path stroke="#415e54" vector-effect="non-scaling-stroke" d="
  M 332.55 390.21
  Q 325.20 389.67 319.87 385.18"
/>
<path stroke="#9cbda3" vector-effect="non-scaling-stroke" d="
  M 593.29 329.71
  L 593.29 300.45
  A 0.61 0.60 -0.0 0 0 592.68 299.85
  L 581.39 299.85
  A 0.54 0.53 0.0 0 0 580.85 300.38
  L 580.85 371.04
  A 0.49 0.49 0.0 0 0 581.34 371.53
  L 592.64 371.53
  A 0.70 0.70 0.0 0 0 593.34 370.82
  Q 593.23 352.41 593.47 341.77
  C 593.63 334.28 599.27 330.85 606.40 332.03
  C 611.47 332.87 613.69 337.55 613.75 342.26
  Q 613.93 354.47 613.77 370.73
  A 0.80 0.79 0.4 0 0 614.57 371.53
  L 625.86 371.53
  A 0.50 0.50 0.0 0 0 626.36 371.03
  Q 626.24 357.74 626.36 344.25
  C 626.42 337.67 626.08 330.90 621.48 326.25
  C 615.51 320.21 602.31 320.58 596.43 326.45
  Q 595.25 327.63 593.76 329.85
  A 0.26 0.26 0.0 0 1 593.29 329.71"
/>
<path stroke="#aeafb1" vector-effect="non-scaling-stroke" d="
  M 825.37 344.27
  A 0.54 0.54 0.0 0 1 824.42 343.91
  L 824.42 300.30
  A 0.54 0.54 0.0 0 0 823.88 299.76
  L 812.37 299.76
  A 0.54 0.54 0.0 0 0 811.83 300.30
  L 811.83 370.92
  A 0.54 0.54 0.0 0 0 812.37 371.46
  L 823.72 371.46
  A 0.54 0.54 0.0 0 0 824.26 370.92
  L 824.26 353.66
  A 0.54 0.54 0.0 0 1 824.53 353.19
  L 829.90 350.09
  A 0.54 0.54 0.0 0 1 830.62 350.26
  L 844.77 371.22
  A 0.54 0.54 0.0 0 0 845.22 371.46
  L 858.49 371.46
  A 0.54 0.54 0.0 0 0 858.92 370.60
  L 839.81 344.07
  A 0.54 0.54 0.0 0 1 839.85 343.39
  L 857.96 323.56
  A 0.54 0.54 0.0 0 0 857.56 322.66
  L 844.19 322.66
  A 0.54 0.54 0.0 0 0 843.78 322.85
  L 825.37 344.27"
/>
<path stroke="#9cbda3" vector-effect="non-scaling-stroke" d="
  M 426.39 334.57
  Q 439.84 329.35 437.19 314.23
  C 435.42 304.19 424.82 300.52 415.75 300.45
  Q 405.50 300.38 387.18 300.37
  A 0.63 0.63 0.0 0 0 386.55 301.00
  L 386.55 370.90
  A 0.55 0.54 -90.0 0 0 387.09 371.45
  Q 402.04 371.41 414.26 371.53
  C 424.99 371.63 435.75 368.83 439.15 358.34
  C 442.60 347.68 437.64 337.90 426.45 335.43
  A 0.45 0.45 0.0 0 1 426.39 334.57"
/>
<path stroke="#aeafb1" vector-effect="non-scaling-stroke" d="
  M 652.45 371.53
  Q 656.66 371.53 658.39 371.43
  A 0.45 0.44 -2.1 0 0 658.81 370.99
  L 658.81 311.51
  A 0.56 0.55 -0.0 0 1 659.37 310.96
  L 679.07 310.96
  A 0.66 0.66 0.0 0 0 679.73 310.30
  L 679.79 300.72
  A 0.33 0.33 0.0 0 0 679.43 300.38
  Q 679.22 300.40 652.50 300.38
  Q 625.77 300.36 625.57 300.34
  A 0.33 0.33 0.0 0 0 625.21 300.68
  L 625.25 310.26
  A 0.66 0.66 0.0 0 0 625.91 310.92
  L 645.61 310.95
  A 0.56 0.55 0.1 0 1 646.17 311.50
  L 646.08 370.98
  A 0.45 0.44 2.1 0 0 646.50 371.42
  Q 648.24 371.53 652.45 371.53"
/>
<path stroke="#9cbda3" vector-effect="non-scaling-stroke" d="
  M 168.87 365.38
  Q 176.29 385.53 191.92 400.60"
/>
<path stroke="#9cb5a7" vector-effect="non-scaling-stroke" d="
  M 191.92 400.60
  C 213.08 420.25 240.50 429.63 268.90 426.23
  A 0.48 0.47 -3.4 0 0 269.32 425.76
  L 269.32 414.19
  A 0.55 0.54 -2.9 0 0 268.72 413.65
  Q 229.99 417.41 201.49 391.80"
/>
<path stroke="#9cbda3" vector-effect="non-scaling-stroke" d="
  M 201.49 391.80
  Q 184.51 375.49 178.58 352.77"
/>
<path stroke="#abcfa5" vector-effect="non-scaling-stroke" d="
  M 178.58 352.77
  Q 175.16 337.47 177.37 321.95
  A 0.20 0.20 0.0 0 1 177.57 321.77
  L 238.54 321.83"
/>
<path stroke="#9cbda3" vector-effect="non-scaling-stroke" d="
  M 238.54 321.83
  C 242.71 322.93 242.22 328.61 238.36 328.70
  Q 226.18 329.00 192.58 328.90
  A 0.51 0.50 -90.0 0 0 192.08 329.41
  L 192.08 340.85
  A 0.56 0.56 0.0 0 0 192.64 341.41
  Q 212.94 341.54 235.04 341.27
  Q 239.37 341.21 240.97 342.43
  Q 243.29 344.19 241.32 348.06"
/>
<path stroke="#9cb5a7" vector-effect="non-scaling-stroke" d="
  M 241.32 348.06
  Q 239.82 349.36 238.25 349.36
  Q 214.70 349.42 192.61 349.39
  A 0.33 0.33 0.0 0 0 192.28 349.72
  L 192.28 361.80
  A 0.67 0.67 0.0 0 0 192.94 362.47
  Q 210.42 362.71 242.23 362.45
  C 252.09 362.37 259.76 355.61 258.22 345.21"
/>
<path stroke="#9cbda3" vector-effect="non-scaling-stroke" d="
  M 258.22 345.21
  Q 257.29 337.69 250.67 334.49
  A 0.35 0.35 0.0 0 1 250.70 333.85
  Q 252.82 333.04 254.18 331.20
  C 258.98 324.68 257.83 314.62 250.48 310.49
  C 242.46 305.99 233.11 306.39 223.95 306.55"
/>
<path stroke="#abcfa5" vector-effect="non-scaling-stroke" d="
  M 223.95 306.55
  L 167.97 306.55
  A 1.27 1.27 0.0 0 0 166.73 307.53
  Q 165.15 314.37 164.15 321.76
  Q 161.10 344.16 168.87 365.38"
/>
<path stroke="#4a8e4b" vector-effect="non-scaling-stroke" d="
  M 223.95 306.55
  Q 224.43 314.46 229.07 321.02
  A 1.06 1.04 -15.9 0 0 229.86 321.45
  L 238.54 321.83"
/>
<path stroke="#4a8e4b" vector-effect="non-scaling-stroke" d="
  M 178.58 352.77
  Q 173.06 358.23 168.87 365.38"
/>
<path stroke="#3b744d" vector-effect="non-scaling-stroke" d="
  M 258.22 345.21
  Q 249.47 345.31 241.32 348.06"
/>
<path stroke="#3b744d" vector-effect="non-scaling-stroke" d="
  M 201.49 391.80
  L 191.92 400.60"
/>
<path stroke="#9cbda3" vector-effect="non-scaling-stroke" d="
  M 501.11 308.62
  L 501.11 322.75
  A 0.45 0.45 0.0 0 1 500.66 323.20
  L 493.58 323.20
  A 0.65 0.65 0.0 0 0 492.93 323.85
  L 492.93 331.31
  A 0.81 0.81 0.0 0 0 493.74 332.12
  L 500.50 332.12
  A 0.64 0.64 0.0 0 1 501.14 332.75
  Q 501.15 333.60 501.17 358.51
  C 501.19 371.36 512.88 373.34 523.08 371.65
  A 1.84 1.84 0.0 0 0 524.63 369.83
  L 524.63 363.61
  A 1.42 1.41 -7.4 0 0 522.85 362.25
  C 518.49 363.41 513.71 362.00 513.59 356.57
  Q 513.29 343.11 513.54 332.63
  A 0.54 0.54 0.0 0 1 514.08 332.10
  L 524.14 332.10
  A 0.91 0.90 -0.0 0 0 525.05 331.20
  L 525.05 323.91
  A 0.75 0.74 -0.0 0 0 524.30 323.17
  L 514.13 323.17
  A 0.66 0.65 90.0 0 1 513.48 322.51
  L 513.48 308.61
  A 0.44 0.44 0.0 0 0 513.04 308.17
  L 501.56 308.17
  A 0.45 0.45 0.0 0 0 501.11 308.62"
/>
<path stroke="#9cbda3" vector-effect="non-scaling-stroke" d="
  M 477.60 367.07
  L 477.60 370.28
  A 1.17 1.16 90.0 0 0 478.76 371.45
  L 489.50 371.45
  A 0.46 0.46 0.0 0 0 489.95 370.91
  Q 489.08 366.20 489.07 361.00
  Q 489.02 346.96 489.09 341.75
  Q 489.17 336.32 487.86 332.38
  C 483.68 319.73 459.73 318.95 451.31 326.94
  Q 447.27 330.78 446.29 336.22
  A 0.67 0.66 -84.9 0 0 446.94 337.01
  L 457.34 337.01
  A 0.83 0.83 0.0 0 0 458.14 336.39
  C 459.42 331.36 464.83 330.49 469.51 330.98
  C 476.18 331.68 476.93 336.63 476.67 342.17
  A 0.70 0.70 0.0 0 1 475.98 342.83
  C 465.32 342.95 445.96 341.32 444.41 356.74
  C 443.43 366.51 450.53 371.66 459.27 372.38
  Q 469.76 373.24 476.95 366.78
  A 0.39 0.39 0.0 0 1 477.60 367.07"
/>
<path stroke="#9cbda3" vector-effect="non-scaling-stroke" d="
  M 574.28 356.30
  L 563.59 356.24
  A 1.08 1.07 -79.6 0 0 562.58 356.95
  C 560.96 361.22 556.57 363.40 552.18 362.89
  C 540.87 361.58 540.07 347.75 542.55 339.49
  Q 545.17 330.76 554.11 331.39
  Q 560.71 331.86 562.40 337.75
  A 1.01 0.99 82.2 0 0 563.36 338.48
  L 574.14 338.54
  A 0.58 0.58 0.0 0 0 574.73 337.87
  C 573.35 327.67 564.84 322.28 554.83 321.91
  C 544.14 321.52 534.98 325.43 531.29 335.14
  C 526.51 347.74 528.93 364.50 542.38 370.37
  C 548.11 372.86 555.32 373.04 561.15 371.32
  Q 572.06 368.12 574.70 356.85
  A 0.45 0.44 -83.0 0 0 574.28 356.30"
/>
<path stroke="#aeafb1" vector-effect="non-scaling-stroke" d="
  M 742.01 366.95
  L 742.01 370.35
  A 1.13 1.12 -0.0 0 0 743.14 371.47
  L 753.90 371.47
  A 0.51 0.51 0.0 0 0 754.38 370.80
  Q 753.25 367.31 753.16 360.00
  Q 753.13 357.64 753.12 337.78
  C 753.12 327.53 745.40 322.76 735.93 321.87
  C 725.36 320.87 713.22 323.81 711.27 336.23
  A 0.68 0.68 0.0 0 0 711.94 337.01
  L 722.39 337.01
  A 0.88 0.87 -83.8 0 0 723.24 336.32
  Q 724.13 332.20 728.58 331.34
  C 736.91 329.73 742.35 333.15 741.04 342.25
  A 0.78 0.77 4.2 0 1 740.26 342.92
  C 731.50 342.79 711.83 341.83 709.57 354.10
  Q 706.84 368.94 721.58 371.92
  C 728.27 373.27 736.75 372.12 741.16 366.65
  A 0.48 0.48 0.0 0 1 742.01 366.95"
/>
<path stroke="#aeafb1" vector-effect="non-scaling-stroke" d="
  M 805.64 356.17
  L 794.93 356.17
  A 1.08 1.07 -79.9 0 0 793.92 356.88
  C 792.32 361.17 787.93 363.38 783.53 362.89
  C 772.19 361.63 771.32 347.78 773.76 339.49
  Q 776.34 330.72 785.31 331.31
  Q 791.92 331.75 793.65 337.64
  A 1.01 1.00 81.9 0 0 794.61 338.37
  L 805.42 338.37
  A 0.59 0.58 -4.2 0 0 806.00 337.70
  C 804.57 327.49 796.01 322.13 785.98 321.81
  C 775.27 321.47 766.11 325.43 762.46 335.18
  C 757.73 347.83 760.24 364.62 773.75 370.43
  C 779.50 372.90 786.73 373.04 792.56 371.29
  Q 803.48 368.03 806.07 356.72
  A 0.45 0.44 -83.3 0 0 805.64 356.17"
/>
<path stroke="#aeafb1" vector-effect="non-scaling-stroke" d="
  M 690.31 330.07
  A 0.45 0.45 0.0 0 1 689.46 329.87
  L 689.46 323.85
  A 0.86 0.86 0.0 0 0 688.60 322.99
  L 677.95 322.99
  A 0.59 0.59 0.0 0 0 677.36 323.58
  L 677.36 370.85
  A 0.61 0.61 0.0 0 0 677.97 371.46
  L 689.11 371.46
  A 0.63 0.62 -90.0 0 0 689.73 370.83
  Q 689.52 356.06 689.49 348.18
  C 689.45 340.24 691.02 333.80 699.74 333.07
  Q 703.55 332.75 706.05 333.22
  A 0.53 0.53 0.0 0 0 706.68 332.70
  L 706.68 322.84
  A 0.71 0.70 -86.8 0 0 706.06 322.14
  Q 700.14 321.45 695.48 323.86
  C 692.94 325.18 691.66 327.28 690.31 330.07"
/>
<path stroke="#9cbda3" vector-effect="non-scaling-stroke" d="
  M 399.42 311.64
  L 399.46 329.62
  A 0.86 0.86 0.0 0 0 400.32 330.48
  L 415.10 330.46
  A 9.98 9.03 -0.1 0 0 425.06 321.41
  L 425.06 319.77
  A 9.98 9.03 -0.1 0 0 415.06 310.76
  L 400.28 310.78
  A 0.86 0.86 0.0 0 0 399.42 311.64"
/>
<path stroke="#9cbda3" vector-effect="non-scaling-stroke" d="
  M 399.44 341.28
  L 399.48 359.94
  A 0.76 0.76 0.0 0 0 400.24 360.70
  L 417.39 360.67
  A 9.73 9.23 -0.1 0 0 427.10 351.43
  L 427.10 349.71
  A 9.73 9.23 -0.1 0 0 417.35 340.49
  L 400.20 340.52
  A 0.76 0.76 0.0 0 0 399.44 341.28"
/>
<path stroke="#9cbda3" vector-effect="non-scaling-stroke" d="
  M 476.29 350.28
  Q 468.67 350.14 463.47 350.90
  C 456.71 351.89 453.78 360.09 460.51 363.49
  Q 462.70 364.59 466.16 364.38
  Q 477.65 363.67 476.87 350.84
  A 0.59 0.59 0.0 0 0 476.29 350.28"
/>
<path stroke="#aeafb1" vector-effect="non-scaling-stroke" d="
  M 740.70 349.88
  Q 733.13 349.96 727.99 350.86
  C 721.31 352.03 718.63 360.25 725.40 363.44
  Q 727.61 364.47 731.04 364.16
  Q 742.42 363.13 741.29 350.42
  A 0.59 0.59 0.0 0 0 740.70 349.88"
/>
</g>
<path fill="#fdfdfd" d="
  M 1024.00 0.00
  L 1024.00 683.00
  L 0.00 683.00
  L 0.00 0.00
  L 1024.00 0.00
  Z
  M 318.81 281.00
  Q 340.88 307.19 337.81 342.01
  C 336.35 358.60 330.25 372.24 319.87 385.18
  Q 311.97 394.19 302.12 400.95
  A 0.38 0.38 0.0 0 1 301.53 400.64
  L 301.53 322.79
  A 0.47 0.47 0.0 0 1 302.00 322.32
  L 329.49 322.32
  A 0.88 0.87 0.0 0 0 330.37 321.45
  L 330.37 307.12
  A 0.57 0.57 0.0 0 0 329.80 306.55
  L 254.64 306.55
  A 0.48 0.48 0.0 0 0 254.35 307.41
  Q 261.58 313.00 261.76 321.90
  A 0.37 0.37 0.0 0 0 262.13 322.27
  L 282.96 322.27
  A 0.62 0.62 0.0 0 1 283.58 322.89
  L 283.58 423.05
  A 0.45 0.45 0.0 0 0 284.17 423.48
  C 303.46 417.26 320.29 406.50 332.55 390.21
  Q 350.45 367.06 351.06 337.77
  Q 351.36 323.44 348.58 311.95
  Q 342.73 287.78 324.82 269.32
  C 313.77 257.90 299.46 249.37 284.35 244.23
  C 260.66 236.17 233.90 239.02 212.13 250.63
  Q 197.20 258.59 184.64 273.01
  C 179.70 278.69 175.05 286.90 171.33 293.67
  A 0.66 0.66 0.0 0 0 171.91 294.65
  L 184.51 294.65
  A 2.86 2.86 0.0 0 0 186.97 293.25
  C 199.01 272.88 219.14 257.49 242.34 253.28
  C 271.24 248.04 299.67 258.91 318.81 281.00
  Z
  M 593.29 329.71
  L 593.29 300.45
  A 0.61 0.60 -0.0 0 0 592.68 299.85
  L 581.39 299.85
  A 0.54 0.53 0.0 0 0 580.85 300.38
  L 580.85 371.04
  A 0.49 0.49 0.0 0 0 581.34 371.53
  L 592.64 371.53
  A 0.70 0.70 0.0 0 0 593.34 370.82
  Q 593.23 352.41 593.47 341.77
  C 593.63 334.28 599.27 330.85 606.40 332.03
  C 611.47 332.87 613.69 337.55 613.75 342.26
  Q 613.93 354.47 613.77 370.73
  A 0.80 0.79 0.4 0 0 614.57 371.53
  L 625.86 371.53
  A 0.50 0.50 0.0 0 0 626.36 371.03
  Q 626.24 357.74 626.36 344.25
  C 626.42 337.67 626.08 330.90 621.48 326.25
  C 615.51 320.21 602.31 320.58 596.43 326.45
  Q 595.25 327.63 593.76 329.85
  A 0.26 0.26 0.0 0 1 593.29 329.71
  Z
  M 825.37 344.27
  A 0.54 0.54 0.0 0 1 824.42 343.91
  L 824.42 300.30
  A 0.54 0.54 0.0 0 0 823.88 299.76
  L 812.37 299.76
  A 0.54 0.54 0.0 0 0 811.83 300.30
  L 811.83 370.92
  A 0.54 0.54 0.0 0 0 812.37 371.46
  L 823.72 371.46
  A 0.54 0.54 0.0 0 0 824.26 370.92
  L 824.26 353.66
  A 0.54 0.54 0.0 0 1 824.53 353.19
  L 829.90 350.09
  A 0.54 0.54 0.0 0 1 830.62 350.26
  L 844.77 371.22
  A 0.54 0.54 0.0 0 0 845.22 371.46
  L 858.49 371.46
  A 0.54 0.54 0.0 0 0 858.92 370.60
  L 839.81 344.07
  A 0.54 0.54 0.0 0 1 839.85 343.39
  L 857.96 323.56
  A 0.54 0.54 0.0 0 0 857.56 322.66
  L 844.19 322.66
  A 0.54 0.54 0.0 0 0 843.78 322.85
  L 825.37 344.27
  Z
  M 426.39 334.57
  Q 439.84 329.35 437.19 314.23
  C 435.42 304.19 424.82 300.52 415.75 300.45
  Q 405.50 300.38 387.18 300.37
  A 0.63 0.63 0.0 0 0 386.55 301.00
  L 386.55 370.90
  A 0.55 0.54 -90.0 0 0 387.09 371.45
  Q 402.04 371.41 414.26 371.53
  C 424.99 371.63 435.75 368.83 439.15 358.34
  C 442.60 347.68 437.64 337.90 426.45 335.43
  A 0.45 0.45 0.0 0 1 426.39 334.57
  Z
  M 652.45 371.53
  Q 656.66 371.53 658.39 371.43
  A 0.45 0.44 -2.1 0 0 658.81 370.99
  L 658.81 311.51
  A 0.56 0.55 -0.0 0 1 659.37 310.96
  L 679.07 310.96
  A 0.66 0.66 0.0 0 0 679.73 310.30
  L 679.79 300.72
  A 0.33 0.33 0.0 0 0 679.43 300.38
  Q 679.22 300.40 652.50 300.38
  Q 625.77 300.36 625.57 300.34
  A 0.33 0.33 0.0 0 0 625.21 300.68
  L 625.25 310.26
  A 0.66 0.66 0.0 0 0 625.91 310.92
  L 645.61 310.95
  A 0.56 0.55 0.1 0 1 646.17 311.50
  L 646.08 370.98
  A 0.45 0.44 2.1 0 0 646.50 371.42
  Q 648.24 371.53 652.45 371.53
  Z
  M 168.87 365.38
  Q 176.29 385.53 191.92 400.60
  C 213.08 420.25 240.50 429.63 268.90 426.23
  A 0.48 0.47 -3.4 0 0 269.32 425.76
  L 269.32 414.19
  A 0.55 0.54 -2.9 0 0 268.72 413.65
  Q 229.99 417.41 201.49 391.80
  Q 184.51 375.49 178.58 352.77
  Q 175.16 337.47 177.37 321.95
  A 0.20 0.20 0.0 0 1 177.57 321.77
  L 238.54 321.83
  C 242.71 322.93 242.22 328.61 238.36 328.70
  Q 226.18 329.00 192.58 328.90
  A 0.51 0.50 -90.0 0 0 192.08 329.41
  L 192.08 340.85
  A 0.56 0.56 0.0 0 0 192.64 341.41
  Q 212.94 341.54 235.04 341.27
  Q 239.37 341.21 240.97 342.43
  Q 243.29 344.19 241.32 348.06
  Q 239.82 349.36 238.25 349.36
  Q 214.70 349.42 192.61 349.39
  A 0.33 0.33 0.0 0 0 192.28 349.72
  L 192.28 361.80
  A 0.67 0.67 0.0 0 0 192.94 362.47
  Q 210.42 362.71 242.23 362.45
  C 252.09 362.37 259.76 355.61 258.22 345.21
  Q 257.29 337.69 250.67 334.49
  A 0.35 0.35 0.0 0 1 250.70 333.85
  Q 252.82 333.04 254.18 331.20
  C 258.98 324.68 257.83 314.62 250.48 310.49
  C 242.46 305.99 233.11 306.39 223.95 306.55
  L 167.97 306.55
  A 1.27 1.27 0.0 0 0 166.73 307.53
  Q 165.15 314.37 164.15 321.76
  Q 161.10 344.16 168.87 365.38
  Z
  M 501.11 308.62
  L 501.11 322.75
  A 0.45 0.45 0.0 0 1 500.66 323.20
  L 493.58 323.20
  A 0.65 0.65 0.0 0 0 492.93 323.85
  L 492.93 331.31
  A 0.81 0.81 0.0 0 0 493.74 332.12
  L 500.50 332.12
  A 0.64 0.64 0.0 0 1 501.14 332.75
  Q 501.15 333.60 501.17 358.51
  C 501.19 371.36 512.88 373.34 523.08 371.65
  A 1.84 1.84 0.0 0 0 524.63 369.83
  L 524.63 363.61
  A 1.42 1.41 -7.4 0 0 522.85 362.25
  C 518.49 363.41 513.71 362.00 513.59 356.57
  Q 513.29 343.11 513.54 332.63
  A 0.54 0.54 0.0 0 1 514.08 332.10
  L 524.14 332.10
  A 0.91 0.90 -0.0 0 0 525.05 331.20
  L 525.05 323.91
  A 0.75 0.74 -0.0 0 0 524.30 323.17
  L 514.13 323.17
  A 0.66 0.65 90.0 0 1 513.48 322.51
  L 513.48 308.61
  A 0.44 0.44 0.0 0 0 513.04 308.17
  L 501.56 308.17
  A 0.45 0.45 0.0 0 0 501.11 308.62
  Z
  M 477.60 367.07
  L 477.60 370.28
  A 1.17 1.16 90.0 0 0 478.76 371.45
  L 489.50 371.45
  A 0.46 0.46 0.0 0 0 489.95 370.91
  Q 489.08 366.20 489.07 361.00
  Q 489.02 346.96 489.09 341.75
  Q 489.17 336.32 487.86 332.38
  C 483.68 319.73 459.73 318.95 451.31 326.94
  Q 447.27 330.78 446.29 336.22
  A 0.67 0.66 -84.9 0 0 446.94 337.01
  L 457.34 337.01
  A 0.83 0.83 0.0 0 0 458.14 336.39
  C 459.42 331.36 464.83 330.49 469.51 330.98
  C 476.18 331.68 476.93 336.63 476.67 342.17
  A 0.70 0.70 0.0 0 1 475.98 342.83
  C 465.32 342.95 445.96 341.32 444.41 356.74
  C 443.43 366.51 450.53 371.66 459.27 372.38
  Q 469.76 373.24 476.95 366.78
  A 0.39 0.39 0.0 0 1 477.60 367.07
  Z
  M 574.28 356.30
  L 563.59 356.24
  A 1.08 1.07 -79.6 0 0 562.58 356.95
  C 560.96 361.22 556.57 363.40 552.18 362.89
  C 540.87 361.58 540.07 347.75 542.55 339.49
  Q 545.17 330.76 554.11 331.39
  Q 560.71 331.86 562.40 337.75
  A 1.01 0.99 82.2 0 0 563.36 338.48
  L 574.14 338.54
  A 0.58 0.58 0.0 0 0 574.73 337.87
  C 573.35 327.67 564.84 322.28 554.83 321.91
  C 544.14 321.52 534.98 325.43 531.29 335.14
  C 526.51 347.74 528.93 364.50 542.38 370.37
  C 548.11 372.86 555.32 373.04 561.15 371.32
  Q 572.06 368.12 574.70 356.85
  A 0.45 0.44 -83.0 0 0 574.28 356.30
  Z
  M 742.01 366.95
  L 742.01 370.35
  A 1.13 1.12 -0.0 0 0 743.14 371.47
  L 753.90 371.47
  A 0.51 0.51 0.0 0 0 754.38 370.80
  Q 753.25 367.31 753.16 360.00
  Q 753.13 357.64 753.12 337.78
  C 753.12 327.53 745.40 322.76 735.93 321.87
  C 725.36 320.87 713.22 323.81 711.27 336.23
  A 0.68 0.68 0.0 0 0 711.94 337.01
  L 722.39 337.01
  A 0.88 0.87 -83.8 0 0 723.24 336.32
  Q 724.13 332.20 728.58 331.34
  C 736.91 329.73 742.35 333.15 741.04 342.25
  A 0.78 0.77 4.2 0 1 740.26 342.92
  C 731.50 342.79 711.83 341.83 709.57 354.10
  Q 706.84 368.94 721.58 371.92
  C 728.27 373.27 736.75 372.12 741.16 366.65
  A 0.48 0.48 0.0 0 1 742.01 366.95
  Z
  M 805.64 356.17
  L 794.93 356.17
  A 1.08 1.07 -79.9 0 0 793.92 356.88
  C 792.32 361.17 787.93 363.38 783.53 362.89
  C 772.19 361.63 771.32 347.78 773.76 339.49
  Q 776.34 330.72 785.31 331.31
  Q 791.92 331.75 793.65 337.64
  A 1.01 1.00 81.9 0 0 794.61 338.37
  L 805.42 338.37
  A 0.59 0.58 -4.2 0 0 806.00 337.70
  C 804.57 327.49 796.01 322.13 785.98 321.81
  C 775.27 321.47 766.11 325.43 762.46 335.18
  C 757.73 347.83 760.24 364.62 773.75 370.43
  C 779.50 372.90 786.73 373.04 792.56 371.29
  Q 803.48 368.03 806.07 356.72
  A 0.45 0.44 -83.3 0 0 805.64 356.17
  Z
  M 690.31 330.07
  A 0.45 0.45 0.0 0 1 689.46 329.87
  L 689.46 323.85
  A 0.86 0.86 0.0 0 0 688.60 322.99
  L 677.95 322.99
  A 0.59 0.59 0.0 0 0 677.36 323.58
  L 677.36 370.85
  A 0.61 0.61 0.0 0 0 677.97 371.46
  L 689.11 371.46
  A 0.63 0.62 -90.0 0 0 689.73 370.83
  Q 689.52 356.06 689.49 348.18
  C 689.45 340.24 691.02 333.80 699.74 333.07
  Q 703.55 332.75 706.05 333.22
  A 0.53 0.53 0.0 0 0 706.68 332.70
  L 706.68 322.84
  A 0.71 0.70 -86.8 0 0 706.06 322.14
  Q 700.14 321.45 695.48 323.86
  C 692.94 325.18 691.66 327.28 690.31 330.07
  Z"
/>
<path fill="#59a04d" d="
  M 324.82 269.32
  Q 320.62 274.71 318.81 281.00
  C 299.67 258.91 271.24 248.04 242.34 253.28
  C 219.14 257.49 199.01 272.88 186.97 293.25
  A 2.86 2.86 0.0 0 1 184.51 294.65
  L 171.91 294.65
  A 0.66 0.66 0.0 0 1 171.33 293.67
  C 175.05 286.90 179.70 278.69 184.64 273.01
  Q 197.20 258.59 212.13 250.63
  C 233.90 239.02 260.66 236.17 284.35 244.23
  C 299.46 249.37 313.77 257.90 324.82 269.32
  Z"
/>
<path fill="#3b6c51" d="
  M 324.82 269.32
  Q 342.73 287.78 348.58 311.95
  Q 351.36 323.44 351.06 337.77
  Q 350.45 367.06 332.55 390.21
  Q 325.20 389.67 319.87 385.18
  C 330.25 372.24 336.35 358.60 337.81 342.01
  Q 340.88 307.19 318.81 281.00
  Q 320.62 274.71 324.82 269.32
  Z"
/>
<path fill="#3a7c48" d="
  M 593.29 329.71
  A 0.26 0.26 0.0 0 0 593.76 329.85
  Q 595.25 327.63 596.43 326.45
  C 602.31 320.58 615.51 320.21 621.48 326.25
  C 626.08 330.90 626.42 337.67 626.36 344.25
  Q 626.24 357.74 626.36 371.03
  A 0.50 0.50 0.0 0 1 625.86 371.53
  L 614.57 371.53
  A 0.80 0.79 0.4 0 1 613.77 370.73
  Q 613.93 354.47 613.75 342.26
  C 613.69 337.55 611.47 332.87 606.40 332.03
  C 599.27 330.85 593.63 334.28 593.47 341.77
  Q 593.23 352.41 593.34 370.82
  A 0.70 0.70 0.0 0 1 592.64 371.53
  L 581.34 371.53
  A 0.49 0.49 0.0 0 1 580.85 371.04
  L 580.85 300.38
  A 0.54 0.53 -0.0 0 1 581.39 299.85
  L 592.68 299.85
  A 0.61 0.60 0.0 0 1 593.29 300.45
  L 593.29 329.71
  Z"
/>
<path fill="#5f6064" d="
  M 825.37 344.27
  L 843.78 322.85
  A 0.54 0.54 0.0 0 1 844.19 322.66
  L 857.56 322.66
  A 0.54 0.54 0.0 0 1 857.96 323.56
  L 839.85 343.39
  A 0.54 0.54 0.0 0 0 839.81 344.07
  L 858.92 370.60
  A 0.54 0.54 0.0 0 1 858.49 371.46
  L 845.22 371.46
  A 0.54 0.54 0.0 0 1 844.77 371.22
  L 830.62 350.26
  A 0.54 0.54 0.0 0 0 829.90 350.09
  L 824.53 353.19
  A 0.54 0.54 0.0 0 0 824.26 353.66
  L 824.26 370.92
  A 0.54 0.54 0.0 0 1 823.72 371.46
  L 812.37 371.46
  A 0.54 0.54 0.0 0 1 811.83 370.92
  L 811.83 300.30
  A 0.54 0.54 0.0 0 1 812.37 299.76
  L 823.88 299.76
  A 0.54 0.54 0.0 0 1 824.42 300.30
  L 824.42 343.91
  A 0.54 0.54 0.0 0 0 825.37 344.27
  Z"
/>
<path fill="#3a7c48" d="
  M 426.39 334.57
  A 0.45 0.45 0.0 0 0 426.45 335.43
  C 437.64 337.90 442.60 347.68 439.15 358.34
  C 435.75 368.83 424.99 371.63 414.26 371.53
  Q 402.04 371.41 387.09 371.45
  A 0.55 0.54 -90.0 0 1 386.55 370.90
  L 386.55 301.00
  A 0.63 0.63 0.0 0 1 387.18 300.37
  Q 405.50 300.38 415.75 300.45
  C 424.82 300.52 435.42 304.19 437.19 314.23
  Q 439.84 329.35 426.39 334.57
  Z
  M 399.42 311.64
  L 399.46 329.62
  A 0.86 0.86 0.0 0 0 400.32 330.48
  L 415.10 330.46
  A 9.98 9.03 -0.1 0 0 425.06 321.41
  L 425.06 319.77
  A 9.98 9.03 -0.1 0 0 415.06 310.76
  L 400.28 310.78
  A 0.86 0.86 0.0 0 0 399.42 311.64
  Z
  M 399.44 341.28
  L 399.48 359.94
  A 0.76 0.76 0.0 0 0 400.24 360.70
  L 417.39 360.67
  A 9.73 9.23 -0.1 0 0 427.10 351.43
  L 427.10 349.71
  A 9.73 9.23 -0.1 0 0 417.35 340.49
  L 400.20 340.52
  A 0.76 0.76 0.0 0 0 399.44 341.28
  Z"
/>
<path fill="#5f6064" d="
  M 652.50 300.38
  Q 679.22 300.40 679.43 300.38
  A 0.33 0.33 0.0 0 1 679.79 300.72
  L 679.73 310.30
  A 0.66 0.66 0.0 0 1 679.07 310.96
  L 659.37 310.96
  A 0.56 0.55 -0.0 0 0 658.81 311.51
  L 658.81 370.99
  A 0.45 0.44 -2.1 0 1 658.39 371.43
  Q 656.66 371.53 652.45 371.53
  Q 648.24 371.53 646.50 371.42
  A 0.45 0.44 2.1 0 1 646.08 370.98
  L 646.17 311.50
  A 0.56 0.55 0.1 0 0 645.61 310.95
  L 625.91 310.92
  A 0.66 0.66 0.0 0 1 625.25 310.26
  L 625.21 300.68
  A 0.33 0.33 0.0 0 1 625.57 300.34
  Q 625.77 300.36 652.50 300.38
  Z"
/>
<path fill="#59a04d" d="
  M 223.95 306.55
  Q 224.43 314.46 229.07 321.02
  A 1.06 1.04 -15.9 0 0 229.86 321.45
  L 238.54 321.83
  L 177.57 321.77
  A 0.20 0.20 0.0 0 0 177.37 321.95
  Q 175.16 337.47 178.58 352.77
  Q 173.06 358.23 168.87 365.38
  Q 161.10 344.16 164.15 321.76
  Q 165.15 314.37 166.73 307.53
  A 1.27 1.27 0.0 0 1 167.97 306.55
  L 223.95 306.55
  Z"
/>
<path fill="#3a7c48" d="
  M 258.22 345.21
  Q 249.47 345.31 241.32 348.06
  Q 243.29 344.19 240.97 342.43
  Q 239.37 341.21 235.04 341.27
  Q 212.94 341.54 192.64 341.41
  A 0.56 0.56 0.0 0 1 192.08 340.85
  L 192.08 329.41
  A 0.51 0.50 90.0 0 1 192.58 328.90
  Q 226.18 329.00 238.36 328.70
  C 242.22 328.61 242.71 322.93 238.54 321.83
  L 229.86 321.45
  A 1.06 1.04 -15.9 0 1 229.07 321.02
  Q 224.43 314.46 223.95 306.55
  C 233.11 306.39 242.46 305.99 250.48 310.49
  C 257.83 314.62 258.98 324.68 254.18 331.20
  Q 252.82 333.04 250.70 333.85
  A 0.35 0.35 0.0 0 0 250.67 334.49
  Q 257.29 337.69 258.22 345.21
  Z"
/>
<path fill="#464f57" d="
  M 319.87 385.18
  Q 325.20 389.67 332.55 390.21
  C 320.29 406.50 303.46 417.26 284.17 423.48
  A 0.45 0.45 0.0 0 1 283.58 423.05
  L 283.58 322.89
  A 0.62 0.62 0.0 0 0 282.96 322.27
  L 262.13 322.27
  A 0.37 0.37 0.0 0 1 261.76 321.90
  Q 261.58 313.00 254.35 307.41
  A 0.48 0.48 0.0 0 1 254.64 306.55
  L 329.80 306.55
  A 0.57 0.57 0.0 0 1 330.37 307.12
  L 330.37 321.45
  A 0.88 0.87 -0.0 0 1 329.49 322.32
  L 302.00 322.32
  A 0.47 0.47 0.0 0 0 301.53 322.79
  L 301.53 400.64
  A 0.38 0.38 0.0 0 0 302.12 400.95
  Q 311.97 394.19 319.87 385.18
  Z"
/>
<path fill="#3a7c48" d="
  M 501.11 308.62
  A 0.45 0.45 0.0 0 1 501.56 308.17
  L 513.04 308.17
  A 0.44 0.44 0.0 0 1 513.48 308.61
  L 513.48 322.51
  A 0.66 0.65 -90.0 0 0 514.13 323.17
  L 524.30 323.17
  A 0.75 0.74 -0.0 0 1 525.05 323.91
  L 525.05 331.20
  A 0.91 0.90 -0.0 0 1 524.14 332.10
  L 514.08 332.10
  A 0.54 0.54 0.0 0 0 513.54 332.63
  Q 513.29 343.11 513.59 356.57
  C 513.71 362.00 518.49 363.41 522.85 362.25
  A 1.42 1.41 -7.4 0 1 524.63 363.61
  L 524.63 369.83
  A 1.84 1.84 0.0 0 1 523.08 371.65
  C 512.88 373.34 501.19 371.36 501.17 358.51
  Q 501.15 333.60 501.14 332.75
  A 0.64 0.64 0.0 0 0 500.50 332.12
  L 493.74 332.12
  A 0.81 0.81 0.0 0 1 492.93 331.31
  L 492.93 323.85
  A 0.65 0.65 0.0 0 1 493.58 323.20
  L 500.66 323.20
  A 0.45 0.45 0.0 0 0 501.11 322.75
  L 501.11 308.62
  Z"
/>
<path fill="#fdfdfd" d="
  M 399.42 311.64
  A 0.86 0.86 0.0 0 1 400.28 310.78
  L 415.06 310.76
  A 9.98 9.03 -0.1 0 1 425.06 319.77
  L 425.06 321.41
  A 9.98 9.03 -0.1 0 1 415.10 330.46
  L 400.32 330.48
  A 0.86 0.86 0.0 0 1 399.46 329.62
  L 399.42 311.64
  Z"
/>
<path fill="#3a7c48" d="
  M 477.60 367.07
  A 0.39 0.39 0.0 0 0 476.95 366.78
  Q 469.76 373.24 459.27 372.38
  C 450.53 371.66 443.43 366.51 444.41 356.74
  C 445.96 341.32 465.32 342.95 475.98 342.83
  A 0.70 0.70 0.0 0 0 476.67 342.17
  C 476.93 336.63 476.18 331.68 469.51 330.98
  C 464.83 330.49 459.42 331.36 458.14 336.39
  A 0.83 0.83 0.0 0 1 457.34 337.01
  L 446.94 337.01
  A 0.67 0.66 -84.9 0 1 446.29 336.22
  Q 447.27 330.78 451.31 326.94
  C 459.73 318.95 483.68 319.73 487.86 332.38
  Q 489.17 336.32 489.09 341.75
  Q 489.02 346.96 489.07 361.00
  Q 489.08 366.20 489.95 370.91
  A 0.46 0.46 0.0 0 1 489.50 371.45
  L 478.76 371.45
  A 1.17 1.16 90.0 0 1 477.60 370.28
  L 477.60 367.07
  Z
  M 476.29 350.28
  Q 468.67 350.14 463.47 350.90
  C 456.71 351.89 453.78 360.09 460.51 363.49
  Q 462.70 364.59 466.16 364.38
  Q 477.65 363.67 476.87 350.84
  A 0.59 0.59 0.0 0 0 476.29 350.28
  Z"
/>
<path fill="#3a7c48" d="
  M 574.28 356.30
  A 0.45 0.44 -83.0 0 1 574.70 356.85
  Q 572.06 368.12 561.15 371.32
  C 555.32 373.04 548.11 372.86 542.38 370.37
  C 528.93 364.50 526.51 347.74 531.29 335.14
  C 534.98 325.43 544.14 321.52 554.83 321.91
  C 564.84 322.28 573.35 327.67 574.73 337.87
  A 0.58 0.58 0.0 0 1 574.14 338.54
  L 563.36 338.48
  A 1.01 0.99 82.2 0 1 562.40 337.75
  Q 560.71 331.86 554.11 331.39
  Q 545.17 330.76 542.55 339.49
  C 540.07 347.75 540.87 361.58 552.18 362.89
  C 556.57 363.40 560.96 361.22 562.58 356.95
  A 1.08 1.07 -79.6 0 1 563.59 356.24
  L 574.28 356.30
  Z"
/>
<path fill="#5f6064" d="
  M 742.01 366.95
  A 0.48 0.48 0.0 0 0 741.16 366.65
  C 736.75 372.12 728.27 373.27 721.58 371.92
  Q 706.84 368.94 709.57 354.10
  C 711.83 341.83 731.50 342.79 740.26 342.92
  A 0.78 0.77 4.2 0 0 741.04 342.25
  C 742.35 333.15 736.91 329.73 728.58 331.34
  Q 724.13 332.20 723.24 336.32
  A 0.88 0.87 -83.8 0 1 722.39 337.01
  L 711.94 337.01
  A 0.68 0.68 0.0 0 1 711.27 336.23
  C 713.22 323.81 725.36 320.87 735.93 321.87
  C 745.40 322.76 753.12 327.53 753.12 337.78
  Q 753.13 357.64 753.16 360.00
  Q 753.25 367.31 754.38 370.80
  A 0.51 0.51 0.0 0 1 753.90 371.47
  L 743.14 371.47
  A 1.13 1.12 0.0 0 1 742.01 370.35
  L 742.01 366.95
  Z
  M 740.70 349.88
  Q 733.13 349.96 727.99 350.86
  C 721.31 352.03 718.63 360.25 725.40 363.44
  Q 727.61 364.47 731.04 364.16
  Q 742.42 363.13 741.29 350.42
  A 0.59 0.59 0.0 0 0 740.70 349.88
  Z"
/>
<path fill="#5f6064" d="
  M 805.64 356.17
  A 0.45 0.44 -83.3 0 1 806.07 356.72
  Q 803.48 368.03 792.56 371.29
  C 786.73 373.04 779.50 372.90 773.75 370.43
  C 760.24 364.62 757.73 347.83 762.46 335.18
  C 766.11 325.43 775.27 321.47 785.98 321.81
  C 796.01 322.13 804.57 327.49 806.00 337.70
  A 0.59 0.58 -4.2 0 1 805.42 338.37
  L 794.61 338.37
  A 1.01 1.00 81.9 0 1 793.65 337.64
  Q 791.92 331.75 785.31 331.31
  Q 776.34 330.72 773.76 339.49
  C 771.32 347.78 772.19 361.63 783.53 362.89
  C 787.93 363.38 792.32 361.17 793.92 356.88
  A 1.08 1.07 -79.9 0 1 794.93 356.17
  L 805.64 356.17
  Z"
/>
<path fill="#5f6064" d="
  M 690.31 330.07
  C 691.66 327.28 692.94 325.18 695.48 323.86
  Q 700.14 321.45 706.06 322.14
  A 0.71 0.70 -86.8 0 1 706.68 322.84
  L 706.68 332.70
  A 0.53 0.53 0.0 0 1 706.05 333.22
  Q 703.55 332.75 699.74 333.07
  C 691.02 333.80 689.45 340.24 689.49 348.18
  Q 689.52 356.06 689.73 370.83
  A 0.63 0.62 -90.0 0 1 689.11 371.46
  L 677.97 371.46
  A 0.61 0.61 0.0 0 1 677.36 370.85
  L 677.36 323.58
  A 0.59 0.59 0.0 0 1 677.95 322.99
  L 688.60 322.99
  A 0.86 0.86 0.0 0 1 689.46 323.85
  L 689.46 329.87
  A 0.45 0.45 0.0 0 0 690.31 330.07
  Z"
/>
<path fill="#fdfdfd" d="
  M 399.44 341.28
  A 0.76 0.76 0.0 0 1 400.20 340.52
  L 417.35 340.49
  A 9.73 9.23 -0.1 0 1 427.10 349.71
  L 427.10 351.43
  A 9.73 9.23 -0.1 0 1 417.39 360.67
  L 400.24 360.70
  A 0.76 0.76 0.0 0 1 399.48 359.94
  L 399.44 341.28
  Z"
/>
<path fill="#3b6c51" d="
  M 258.22 345.21
  C 259.76 355.61 252.09 362.37 242.23 362.45
  Q 210.42 362.71 192.94 362.47
  A 0.67 0.67 0.0 0 1 192.28 361.80
  L 192.28 349.72
  A 0.33 0.33 0.0 0 1 192.61 349.39
  Q 214.70 349.42 238.25 349.36
  Q 239.82 349.36 241.32 348.06
  Q 249.47 345.31 258.22 345.21
  Z"
/>
<path fill="#fdfdfd" d="
  M 740.70 349.88
  A 0.59 0.59 0.0 0 1 741.29 350.42
  Q 742.42 363.13 731.04 364.16
  Q 727.61 364.47 725.40 363.44
  C 718.63 360.25 721.31 352.03 727.99 350.86
  Q 733.13 349.96 740.70 349.88
  Z"
/>
<path fill="#fdfdfd" d="
  M 476.29 350.28
  A 0.59 0.59 0.0 0 1 476.87 350.84
  Q 477.65 363.67 466.16 364.38
  Q 462.70 364.59 460.51 363.49
  C 453.78 360.09 456.71 351.89 463.47 350.90
  Q 468.67 350.14 476.29 350.28
  Z"
/>
<path fill="#3a7c48" d="
  M 178.58 352.77
  Q 184.51 375.49 201.49 391.80
  L 191.92 400.60
  Q 176.29 385.53 168.87 365.38
  Q 173.06 358.23 178.58 352.77
  Z"
/>
<path fill="#3b6c51" d="
  M 191.92 400.60
  L 201.49 391.80
  Q 229.99 417.41 268.72 413.65
  A 0.55 0.54 -2.9 0 1 269.32 414.19
  L 269.32 425.76
  A 0.48 0.47 -3.4 0 1 268.90 426.23
  C 240.50 429.63 213.08 420.25 191.92 400.60
  Z"
/>
</svg>
